<svg version="1.1" id="mappa" xmlns="http://www.w3.org/2000/svg" xmlns:xlink="http://www.w3.org/1999/xlink" x="0px" y="0px"
	 viewBox="350 250 700 300">

<path id="Matera" class="st0" d="M975.6,343.8c-2.2,1.2-4,2.2-6.1,3.4c-3.3-1-6.9-2-11.3-3.4c-8.3,4.2-17.2,8.8-26.2,13.1
	c-3.3,1.6-7,2.4-10.7,3.6c-1.4-3.6-2.8-6.1-3.4-8.9c-1.1-4.9-5.4-5.5-8.9-6.8c-14.7-5.3-29.4-10.4-44.1-15.5c-1-0.3-1.9-0.8-3.2-1.4
	c0.1-1.5,0.2-3,0.3-4.7c-4.3-1.9-8.8-3.9-13.6-6.1c1.7-3.6,3.1-6.5,4.4-9.1c-1.3-5.7-2.6-11.1-3.8-16.5c1.1-0.3,1.5-0.6,2-0.5
	c3,0.4,5.2-0.5,6.6-3.4c0.3-0.7,1.2-1.2,1.9-1.8c3.3-2.4,7.1-4.3,9.9-7.2c4.5-4.7,9.8-8.8,12.2-15.3c0.5-1.3,1.6-2.5,2.9-4.5
	c1.6,3.7,2.2,7.5,6.2,7.5c-0.4,2.2-0.8,3.9-1.1,5.6c0.3-0.2,0.7-0.3,1-0.5c2.3,1.8,4.5,3.9,7,5.5c1.3,0.8,3.2,0.6,5,0.9
	c0.1-1.4,0.3-2.1,0.1-2.5c-1.4-2.2-1.6-4.4-1-6.9c0.2-0.8-1.2-2-2.2-3.5c2-1.1,4.2-2.3,6.4-3.5c1.4,3.4,2.7,6.8,4,9.9
	c2.1,0.1,3.3,0.2,4.4,0.3c3.4-3.2,3.4-3.8,0.9-7.8c-0.6-1-1-2.8-0.6-3.8c0.4-0.9,2.1-1.3,3.7-2.2c1.5,7.3,7,4.6,10.9,5.5
	c2.7,0.6,5.6,0.4,7.1,0.5c3.6,3.2,5.9,5.9,8.8,7.7c1.3,0.8,3.7,0,5.4-0.1c0.7-1.2,1-1.9,1.3-2.2c6.7,4.6,13.4,9.1,20.1,13.7
	c-0.1,0.3-0.2,0.7-0.3,1c-1.3-0.1-2.6-0.1-4.6-0.2c-1,1.2-2.4,2.8-4.1,4.9c4.4,3.2,4,11.6,13,8.6c-1,4.8-1.8,8.8-2.8,12.7
	c-1.2,4.4-2.7,8.8-3.9,13.2c-0.4,1.7-0.5,3.6-0.4,5.4C969.4,334.1,971.5,339.1,975.6,343.8z"/>
<path id="Irsina" class="st0" d="M841.4,286.7c-3.2,2.3-5.9,4.3-8.7,6.3c-2.1,1.5-4.3,2.7-6.3,4.3c-3,2.4-6.2,3.6-10,1.8
	c-2.3,2.8-4.5,5.6-7,8.5c-12.5-7.2-26.2-5.8-39.2-5.8c-0.5-0.4-0.7-0.4-0.7-0.6c-2.5-6.9-8.6-8.7-14.6-10.7c-2.9-1-5.8-2-8.7-3.2
	c-2-0.8-2.6-4.4-1.6-8c0.3-0.9,0.4-1.8-0.2-3.2c-1,0.8-2,1.7-3.1,2.5c-4.8-8.3-9.6-16.4-14-24.7c-0.8-1.5-0.4-3.8-0.2-5.6
	c0.5-3.3,1.4-6.6,2.1-10.1c5-1.4,9.9-2.6,14.7-4.1c3.3-1,6.6-2.2,9.6-3.8c7.4-3.9,14.6-8.2,22-12.3c2.5-1.4,4.6,0,5.3,2.3
	c1.1,3.7,3.3,6.4,6.2,8.6c0.3,0.2,0.7,0.5,0.8,0.9c2.1,6.5,7.6,9.5,12.8,12.7c6.2,3.8,10.5,9.4,14.6,15c3.8,5.2,8.6,9,13.9,12.3
	c3.8,2.4,7.1,5.1,8.3,9.8C838.2,282.2,840,284.3,841.4,286.7z"/>
<path id="Pisticci" class="st0" d="M892,474.9c0-8-5.9-10.5-12.1-12.2c1.7-8.2,9.5-23.5,16.4-32.4c8.6-0.5,16.4,5.3,17.1,13.6
	c3.8-0.3,7.7-0.6,11.5-0.8c1.3-0.1,2.8-0.2,3.8,0.4c3.6,2.2,7.3,4.6,7.9,9.5c3.2-0.8,5.9-1.5,8.9-2.3c1.2,2.4,2.3,4.6,3.2,6.5
	c1.5,0.5,2.6,0.8,3.6,1.1c0,0,0-0.1,0-0.1c4.8,0.9,9.6,1.7,15.4,2.8c3.1-1.5,3.1-1.5,6.5,2.1c1.1-1.3,2.1-2.6,3.7-4.5
	c4.8,1.5,9.9,2.9,14.8,4.7c5.6,2.1,5.9,8.3,9,12.5c1.6-0.4,3.1-0.9,4.4-1.2c3,3.4,6,6.6,9.6,10.6c-1.2,1.9-2.7,4.7-4.5,7.1
	c-4.2,5.6-8.6,10.9-12.7,16.5c-1.2,1.6-1.6,3.7-2.4,5.8c-1.9-0.6-3.6-1-5.2-1.5c-0.1-1.2-0.1-2.1-0.2-2.8c-2.5-0.9-4.8-1.7-7.1-2.5
	c-7.1-0.8-13.8-3.6-20.5-6.1c-6.6-2.5-13-5.3-20.3-6.1c-4.2-0.5-8.1-4.4-12.1-7c-2-1.3-3.5-3.4-5.6-4.4c-3.3-1.5-6.9-2.5-10.4-3.4
	C907.2,478.9,899.8,477,892,474.9z"/>
<path id="Ferrandina" class="st0" d="M831.6,353.5c8,4.8,15.6,9.4,23.3,13.9c10.3,6,15.7,16.5,23.6,24.8c1,1,1.7,2.3,2.8,3.2
	c6.6,5.3,6.4,13.4,8.7,20.5c0.3,0.9,0.7,2.1,1.4,2.6c2.3,1.7,3.9,3.7,3.6,6.7c-0.2,2,0.1,4.4-0.9,6c-5.7,9.3-11.7,18.5-14.9,29.1
	c-0.2,0.7-0.7,1.4-1.4,2.6c-1.2-0.4-2.5-0.6-3.4-1.3c-1.7-1.3-3.2-2.8-4.8-4.2c-2.7-2.4-5.6-4.3-9.2-5.5c-8.5-3-16.8-6.6-25-10.4
	c-2-0.9-3.3-3.5-4.7-5.4c-2.3-3.1-4.5-6.2-6.5-9.5c-1.9-3.1-4.1-6.1-5.1-9.5c-0.5-1.8,1-4.3,1.9-6.3c1.7-4.1,3.7-8.1,5.5-12.1
	c0.4-0.9,0.8-2,0.6-2.9c-0.9-4.2-2.2-8.4-3.1-12.6c-0.9-4.1-1.6-8.3-2.3-12.5c-0.1-0.5,0.1-1.5,0.5-1.7c4.1-2.6,4.9-7.2,7-11.1
	C829.7,356.6,830.4,355.5,831.6,353.5z"/>
<path id="Stigliano" class="st0" d="M751.1,436.9c0.6-0.3,0.9-0.7,1.3-0.7c5.8-0.8,9.7-4.7,13.9-8.1c1.3-1.1,3.6-1.5,5.3-1.3
	c5.5,0.6,11,1.2,16.3,2.7c7.1,2,14,4.8,21.1,7.2c6.3,2.1,12.6,4.1,18.9,6.2c0.5,0.2,1,0.3,1.9,0.6c0.3,3.1,0.6,6.2,0.8,9.3
	c0.2,5.5-0.2,11,0.7,16.4c0.8,4.9,2.9,9.7,4.6,14.4c0.2,0.6,1.4,1.1,2.1,1.2c3.4,0.5,6.8,1.1,10.2,1c7.2-0.1,12.2,4.5,17.7,7.9
	c2.4,1.5,5.1,2.6,6.9,4.6c1.8,2,2.8,4.8,4,7.4c0.9,1.9,1.6,3.9,2.8,6.8c-2.6-0.7-5.3-0.7-7.1-2c-5.3-3.7-10.2-8-15.5-11.8
	c-1.4-1-3.6-1.5-5.4-1.4c-7.5,0.7-14.9,1.8-22.4,2.8c-0.8,0.1-1.5,0.5-2.3,0.6c-2.1,0.5-3.8,0.3-5.2-1.7c-1.8-2.5-3.8-4.9-5.9-7.2
	c-0.9-0.9-2.2-1.6-3.4-2c-5.8-2-11.5-4-17.4-5.8c-2-0.6-4.3-0.3-6.4-0.3c-0.9,0-1.9,0.3-2.8,0.7c-6.6,3-12.5,1.4-18-2.5
	c-1.3-0.9-2.3-2.3-3.3-3.7c-2.3-3.3-4-6.9-6.6-9.9c-5-5.6-5.6-12.3-5.9-19.3C751.7,445,751.4,440.9,751.1,436.9z"/>
<path id="Genzano_di_Lucania" class="st0" d="M775.5,216.8c-14.6,8.8-29.2,18-46.9,20.1c-1.2,5.2-2.3,9.9-3.5,15.2
	c-2.7-1.5-4.9-2.9-7.2-4c-1.4-0.7-2.9-1-4.4-1.5c-1.2-0.4-2.4-0.7-3.6-1.1c-3.3-1.2-6.7-2.2-9.7-3.9c-3.3-1.8-6.3-4.2-9.3-6.5
	c-9.1-6.8-18.1-13.7-27.1-20.5c-4-3.1-4.1-4.9-0.5-9.3c2.9,2,5.8,4.2,8.9,6c1.1,0.6,2.8,1.1,3.9,0.7c7.1-2.3,14.1-4.9,21-7.5
	c0.9-0.3,1.6-1.4,2.2-2.3c1.3-1.9,2.2-4.2,3.7-5.8c1.4-1.4,3.3-2.5,5.2-3c3.9-1,7.9-1.4,11.9-2.1c0.4-0.1,0.8-0.2,1.1-0.5
	c3.8-3.1,7.8-6.2,11.4-9.5c1.1-1,1.9-2.9,2.2-4.4c0.7-3.2,2.8-5.3,6.1-5.5c1.2-0.1,2.7-0.1,3.4-0.8c2.3-2.2,4.3-1.3,6.4,0
	c0.3,0.2,0.6,0.4,0.9,0.4c10.3,1,13.1,9.3,16,17c2,5.4,2.7,11.3,4.3,16.9c1,3.5,2.5,6.8,3.7,10.3
	C775.6,215.4,775.5,215.8,775.5,216.8z"/>
<path id="Melfi" class="st0" d="M500.7,148.6c0.4-4,0.7-7.4,1.2-10.8c0.4-2.9,1.5-5.7,1.7-8.5c0.1-1.3-0.8-3-1.7-4
	c-2.3-2.6-4-10.4-2.5-13.6c-5.3-6.2-8.5-13.3-8.1-21.6c0.4,0.1,0.7,0.2,1.1,0.3c1.4-2,2.7-4.1,4.1-6c2.5-3.5,5.7-6.3,10-6.5
	c5.8-0.4,11.7-0.2,17.4,0.3c2.2,0.2,4.4,1.8,6.5,2.8c0.2,0.1,0.4,0.2,0.7,0.2c5.7,0.7,11.4,2,17.1,2c5.5,0,11-1.1,16.4-2
	c0.9-0.1,1.8-1.2,2.4-2c0.7-0.9,1.2-2,1.8-2.8c5.7-0.5,7.3,4.7,10.9,7c-0.2,0.4-0.2,1-0.5,1.3c-5.3,5.6-6.1,12.8-7.5,19.9
	c-0.6,3.4-1.2,6.8-2,10.2c-0.2,0.8-0.8,1.5-1.5,2c-0.7,0.6-1.7,0.9-2.6,1.2c-4,1.4-7.3,3.4-8.6,7.8c-1.2,4.2-4.4,6.6-8.1,8
	c-6.8,2.6-10.3,8.7-15.3,13.3c-2.9,2.7-5.9,5.4-9.2,7.6c-1.3,0.9-3.6,0.6-5.3,0.4C512.4,154.1,506.3,151.3,500.7,148.6z"/>
<path id="Lauria" class="st0" d="M660.5,608.3c0.4,0.4,0.8,0.9,1.1,1.2c-2.8,5.7-5.6,11.3-8.8,17.7c3.1,0,5.3,0.1,7.6,0
	c2.2-0.1,3.6,0.5,4.1,2.8c0.2,0.8,0.5,1.5,0.7,2.2c2,6.4,2,6.4-3.7,9.8c-4.5,2.8-9.1,5.5-14.3,8.6c0.2,4,0.4,8.4,0.6,12.8
	c0,1,0.4,2.4-0.1,2.9c-3,3-6.2,5.8-9.4,8.6c-0.5,0.4-1.2,0.5-1.5-0.1c-1.8-1.6-3.3-3.7-5.3-4.5c-2.3-1-5.2-1.5-6.7,2.2
	c-1.6-1.9-3.2-3.2-4.2-4.9c-1.7-3-3.5-3.1-6.8-2.3c-3.3,0.8-7.2,2.4-10.6-0.4c-0.1-0.1-0.1-0.1-0.2-0.2c-0.2-0.5-0.5-1-0.7-1.5
	c-0.1-0.1-0.2-0.3-0.2-0.4c-0.2-0.5-0.5-1-0.7-1.5c-0.1-0.1-0.2-0.3-0.2-0.4c-0.2-0.8-0.5-1.6-0.7-2.4c-0.1-0.1-0.2-0.3-0.3-0.4
	c-0.2-1.1-0.5-2.2-0.7-3.3c-0.1-0.1-0.2-0.3-0.2-0.4c-0.2-1.1-0.5-2.2-0.7-3.3c-0.1-0.2-0.2-0.3-0.3-0.5c-0.2-1.1-0.5-2.2-0.7-3.3
	c-0.1-0.1-0.2-0.2-0.2-0.4c-0.4-0.8-0.7-1.6-1.2-2.7c0-0.3,0.1-1,0.2-1.7c0.1-0.1,0.2-0.3,0.3-0.4c0.2-0.5,0.5-1,0.7-1.5
	c0.1-0.1,0.2-0.3,0.3-0.4c0.5-0.8,1-1.6,1.6-2.4c0.1-0.1,0.2-0.3,0.3-0.4c0.2-0.5,0.4-1,0.7-1.5c0.1-0.1,0.2-0.3,0.3-0.4
	c0.8-1.4,1.7-2.9,2.5-4.3c0.1-0.1,0.2-0.3,0.3-0.4c0.8-1.4,1.7-2.9,2.5-4.3c0.1-0.1,0.2-0.3,0.3-0.4c0.8-1.4,1.7-2.9,2.5-4.3
	c0.1-0.1,0.2-0.3,0.3-0.4c0.2-0.5,0.4-1,0.7-1.5c0.1-0.1,0.2-0.3,0.3-0.4c0.5-0.8,1-1.6,1.6-2.4c0.1-0.1,0.2-0.3,0.3-0.4
	c0.5-0.7,1.1-1.4,1.7-2.3c-0.7-0.8-1.2-1.4-1.7-2c-0.1-0.1-0.2-0.3-0.3-0.4c-0.5-1.4-1.1-2.9-1.6-4.3c-0.1-0.1-0.1-0.2-0.2-0.3
	c0-0.2,0.1-0.5,0-0.7c-2.4-7.1,2.3-10.8,7-14.3c1.9-1.4,4-2.7,6.2-3.2c2.1-0.5,4.4,0.1,6.5,0.4c2.4,0.4,5.1,2.1,6.8,1.3
	c1.7-0.8,2.3-3.9,3.4-6c0.1-0.3,0.4-0.5,1.1-1.5c1.5,1.3,3.1,2.5,4.4,3.9c0.8,0.9,1.3,2.1,1.9,3.1c0.1,0.1,0.1,0.1,0.2,0.2
	c0.2,0.5,0.5,1,0.7,1.6c0.1,0.1,0.1,0.2,0.2,0.3c0.2,0.5,0.5,1,0.7,1.6c0.1,0.1,0.1,0.2,0.2,0.3c0.9,2.7,1.7,5.4,2.6,8.1
	c0.1,0.1,0.1,0.2,0.2,0.3c0.2,2.8,2.5,2.9,4.4,3.5c0.1,0.1,0.2,0.2,0.3,0.2c0.5,0.2,1,0.5,1.6,0.7c0.1,0.1,0.2,0.1,0.3,0.2
	c0.5,0.2,1,0.5,1.5,0.7L660.5,608.3z"/>
<path id="Potenza" class="st0" d="M620.1,354.2c-1.9-0.4-3.8-0.8-5.9-1.2c-3-8.3-10.5-9-17.7-10.2c-4-0.7-8-1.1-11.9-2.1
	c-1.5-0.4-2.7-1.9-4.1-2.6c-4.5-1.7-8.9-3.4-13.4-5.1c-0.8-0.3-1.7-0.9-2-1.6c-2.6-6.4-5.2-12.8-7.5-18.8c4-3.5,7.2-6.1,10.2-9
	c3.2-3.2,5.6-6.9,5.2-11.7c-0.2-3.2,1.4-5.2,3.6-7.1c0.2-0.2,0.3-0.3,0.5-0.5c4.1-3.1,8.4-6.2,3.7-12.2c2.8-2.6,5.9-2.3,8.3-1.3
	c8.9,3.6,17.6,7.5,26.2,11.7c2.9,1.4,5.4,3.9,7.8,6.2c0.9,0.8,1,2.6,1.2,3.9c0.7,4.5,2.5,8.8,0.9,13.5c-0.9,2.6-0.4,5.2,2.7,6.6
	c1.3,0.6,2.5,1.4,3.7,2.1c5.3,3.2,4.6,3.2,3.6,9.2c-1.6,10.3-8.3,17.8-13,26.4C621.6,351.6,620.9,352.7,620.1,354.2z"/>
<path id="Montescaglioso" class="st0" d="M970.6,385.1c3,2.5,3.2,6.6,7.4,7.7c2.6,0.7,2.1,3.4,1.1,5.3c-1.6,3-3.5,5.8-5.2,8.8
	c-0.5,0.8-0.7,2-0.5,2.9c0.4,2,8.2,8.1,10.3,8.1c1,0,1.9-0.5,2.8-0.8c1.5-0.6,3-1.3,4.3-1.9c2.5,1.6,2.7,5.4,0.2,6.6
	c-8.4,4-13.6,11.2-19,18.2c-0.1,0.2-0.4,0.3-0.8,0.6c-6.1-3.7-12.5-7.1-15.9-14.1c-2.6-5.2-4.3-5.7-10.8-4.3
	c5.3,8.7,6.6,17.6,1,27.1c-2.3,0.7-5,1.5-6.6,1.9c-2.9-2.9-4.7-5.7-7.3-7.1c-4.8-2.7-4.5-6.7-4.1-10c4.5-3.6,8.4-6.7,12.3-9.8
	c2.4-1.9,2.4-3.8,0.8-6.3c-2.3-3.8-5.9-7.4-4.5-12.3c1.7-6-1.4-10.2-4.2-14.8c-3.7-5.8-7.1-11.8-10.8-17.6
	c-3.9-6.2-2.2-10.8,4.5-13.2c4.8-1.7,9.4-4,14-6.2c3.9-1.8,7.6-4,11.5-5.7c2.5-1.1,5.1-1.9,7.7-2.7c6.4-1.8,13.1,4.4,11.7,10.8
	c-1,4.5-2.3,9-3.2,13.6c-0.2,1,0.6,2.4,1.2,3.5c0.6,1,1.7,1.8,2.5,2.8C973,379.1,974.8,382,970.6,385.1z"/>
<g id="Tricarico">
	<path class="st0" d="M654.1,322.6c1,3.3,1.7,5.7,2.6,8c0.6,1.7,1.1,4.2,2.4,4.9c3.4,1.9,7.2,3,12,4.8c-0.5-7.8-0.9-14.8-1.5-22.9
		C664.2,319.2,659.4,320.8,654.1,322.6z"/>
	<path class="st0" d="M801.9,315c-1.3-3.4-3.4-5.8-4.5-8.7c-2.4,1.5-3,2.5-4.9,3.7c-0.8-1.5-1.7-2.6-2-3.9c-0.8-2.7-2.5-3.5-5.2-3.4
		c-4.5,0.2-9.1,0.2-13.6-0.1c-1.4-0.1-2.8-1.2-3.9-2.2c-1.7-1.7-2.8-4.4-4.8-5.6c-2.7-1.7-6-2.4-9.1-3.5c-3.5-1.3-7-2.7-10.8-4.2
		c0-2.6,0-4.9,0-7.2c-0.4-0.1-0.9-0.2-1.3-0.3c-1.1,4.5-2.3,8.9-3.4,13.4c-1.6,0.1-2.7-0.1-3.8,0.2c-2,0.5-4.3,0.9-5.8,2.1
		c-7.1,5.9-13.6,12.5-22.1,16.8c-2.3,1.1-4,4-5.3,6.4c-1.1,2-1.2,4.5-1.8,6.8c-0.3,0-0.5,0.1-0.8,0.1c0.2,0.4,0.4,0.9,0.6,1.2
		c7.3,9.8,15.8,18.4,26.4,24.7c1.3,0.8,3.4,0.9,4.9,0.5c5.9-1.6,11.8-3.6,17.7-5.5c3.2-1,6.5-1.8,6.5-6.4c0-0.7,1.7-1.9,2.6-1.9
		c3.5-0.2,7-0.1,10.5-0.1c3.7-0.1,8.5-4.9,8.5-8.6c0-2.9,0-5.8,0-8.1C784,314.5,792.7,314.9,801.9,315z"/>
</g>
<path id="Tursi" class="st0" d="M931.2,553.4c-1.6,1.3-3.3,2.5-4.9,3.9c-1.3,1.2-2.6,2.5-3.8,3.7c-6.3-4.4-12.4-8.7-18.4-12.9
	c-9.4,3.6-18.3,7-27.5,10.5c-5.7-9.2-16.2-8.7-24.4-12.8c-1-0.5-2-0.8-2.9-1.2c-0.6-3-1.1-5.9-1.7-8.9c-4.5-1.4-8.8-2.9-13.1-4.1
	c-3.4-1-4.4-2.6-3.3-6.2c1.1-3.5,1.1-6.9-0.9-10c-1.2-2-1.3-3.9-0.3-6c1.2-2.6,2.1-5.4,3.1-8.1c4.4-0.8,8.6-1,12.4-2.3
	c8.9-2.9,14.1,2.9,19.8,7.7c2.4,1.9,4.7,3.9,7.2,5.7c1,0.7,2.5,1,3.7,0.9c3.7-0.3,7,0.8,10.3,2.5c11.3,5.9,22.8,11.6,34.1,17.4
	c2.5,1.3,4.6,3.4,7.1,4.4c3.1,1.3,6.5,1.9,9.7,2.8c0.9,0.2,1.7,0.4,2.8,0.6c-0.6,1.7-1.1,3.1-1.5,4.5c-0.1,0.1-0.2,0.3-0.3,0.4
	c-0.2,0.2-0.3,0.3-0.5,0.5c-0.2,0.2-0.3,0.3-0.5,0.5c-0.2,0.2-0.3,0.3-0.5,0.5c-0.2,0.2-0.3,0.3-0.5,0.5c-0.5,0.5-0.9,1-1.4,1.4
	c-0.2,0.2-0.3,0.3-0.5,0.5c-0.2,0.2-0.3,0.3-0.5,0.5c-0.2,0.2-0.3,0.3-0.5,0.5c-0.2,0.2-0.3,0.3-0.5,0.5c-0.2,0.2-0.3,0.3-0.5,0.5
	c-0.5,0.5-0.9,1-1.4,1.4C931.4,553.2,931.3,553.3,931.2,553.4z"/>
<path id="Montalbano_Jonico" class="st0" d="M955.9,510.7c-0.8,2.2-1.7,5.3-3,8.2c-0.4,1-1.8,1.9-2.9,2.1c-3.4,0.8-4.8,2.7-4.3,6.1
	c0.2,1.1-0.1,2.2-0.2,3.7c-4.6,0.6-9.1,1.2-13.4,1.7c-0.6,1.8-1,3.1-1.4,4.4c-4-2.2-7.6-4.4-11.4-6.3c-10.7-5.4-21.5-10.9-32.3-16.1
	c-8-3.8-12.7-11.6-11.7-20.3c0.5-4.8,1.3-9.5,1.9-14.5c5.1-1.2,9.8-3.2,14.6-3.2c4.4,0,8.9,2,13.3,3.1c4.8,1.2,9.9,1.8,14.5,3.5
	c3.7,1.4,6.8,4.2,10.1,6.4c3.7,2.4,7.3,5,11.1,7.1c1.4,0.8,3.4,0.5,5.1,0.6c2.4,0.1,3.9,1.1,4.8,3.4
	C952.2,503.8,954,506.9,955.9,510.7z"/>
<path id="Pomarico" class="st0" d="M872.3,382.7c3.3-3.1,6.4-6,9.6-8.8c0.6-0.5,1.8-0.6,2.7-0.5c4.2,0.2,8.4,1.2,12.5,0.7
	c3.2-0.4,6.5-2.1,9.4-3.8c3.4-2.1,6.8-2.4,9.8-0.5c2,1.2,3.4,3.7,4.7,5.8c4.4,7.1,8.6,14.2,13,21.3c1.3,2.1,1.6,4,1,6.4
	c-1.4,5.8,1,10.7,4.3,15.2c1.7,2.3,1.4,4.1-0.8,5.7c-3.7,2.8-7.5,5.7-11.3,8.5c-0.3-0.3-0.7-0.5-1-0.8c0,2.3-0.1,4.5,0,6.8
	c0.1,2.5-1.3,3.8-3.5,4c-2.5,0.2-5.1,0.1-7.3,0.1c-2.4-3.6-4.3-7.4-7.2-10.3c-1.6-1.7-4.6-2.1-7.1-2.8c-4.3-1.1-5-1.9-5.4-6.4
	c-0.1-1-0.3-2.6-1-3c-4.3-2.5-4.9-7.1-5.3-11.1c-0.8-6.5-4.1-11.3-8.4-15.7c-2.6-2.7-5-5.5-7.4-8.4
	C873.1,384.5,872.9,383.7,872.3,382.7z"/>
<path id="Tolve" class="st0" d="M690.8,325.3c-9,1.3-14.5-4.1-20-9.1c-5.9-5.4-7.7-12.5-6.4-20c-3.6-2.4-6.7-4.4-10.1-6.6
	c1-1.2,1.5-2.1,2.2-2.6c5.2-4.2,8.3-9.9,11.1-15.8c0.9-1.9,2.1-2.8,4.2-2.6c7.2,0.7,14.1-1.1,21.1-2.5c4.9-0.9,10.1-0.2,15.2-0.4
	c6.8-0.2,13.6-0.8,20.4-0.8c1.6,0,3.7,1.1,4.6,2.4c2.5,3.9,5.3,7.9,6.4,12.2c0.8,3.5-0.7,7.5-1.4,11.3c-0.1,0.6-1.2,1.4-1.8,1.3
	c-7.6-0.7-14.5,1.6-21.2,6.2c-1.3-3.7-2.4-6.7-3.8-10.7C698.6,297.2,691.2,309.1,690.8,325.3z"/>
<path id="Lavello" class="st0" d="M618.7,92c0.7,0.6,1.5,1.2,2.6,2.1c-0.2,0.9-0.3,2.1-0.7,3.1c-1.3,3.3-2.5,6.7-4,9.9
	c-0.4,0.9-1.8,2.1-2.7,2c-3-0.3-4.7,1.3-5.6,3.8c-1.3,3.2-3.5,4.3-6.9,4.1c-5.9-0.3-11.9-0.3-17.9,0c-3,0.1-6,0.9-9,1.6
	c-2.3,0.6-4.1-0.6-3.8-3c0.3-2.8,0.6-5.7,1.3-8.4c1.1-5,2.2-10,3.7-14.9c1.2-3.7,2.9-7.3,7.7-8c2-0.3,3.8-1.6,5.7-2.5
	c6.2,1.1,9.2-2.5,8.7-10.8c2.6-4.6,7.2-5,12-5.4c-0.2-2-0.3-3.6-0.5-5.7c3.6,4,4.2,3.8,8.1-1.6c2.7-0.5,6.5,2.6,7.7-3.3
	c1.5,0.8,2.6,1.3,3.4,2c0.7,0.7,1.3,1.6,1.7,2.6c1.3,2.7,2.7,4.8,6,2.4c1.5,1.2,2.8,2.5,4.2,3.4c2.5,1.6,5.1,3.1,7.8,4.5
	c0.6,0.3,1.5,0,2.2-0.1c1.6-0.2,3.3-0.9,4.7-0.5c1.4,0.5,3.2,1.9,3.6,3.3c0.7,2.3,0,4.7-2.5,6.1c-1.5,0.8-2.9,1.6-4.4,2.4
	c-0.7,0.4-1.6,1-1.7,1.6c-0.3,3.2-2.6,4.3-5,5c-7.8,2.6-12.8,7.8-15.6,15.3c-0.2,0.6-0.7,1-1,1.6c-4.1-3.7-4.8-9.9-1.7-14
	c2-2.7,4-5.5,6-8.3c0.4-0.5,0.6-1.2,0.9-1.9C628.4,83.3,622.4,86.3,618.7,92z"/>
<path id="Muro_Lucano" class="st0" d="M468.8,302.8c-2.8,0-5.7,0.1-8.5-0.2c-3.1-0.2-5.5-1.5-6.7-4.8c-0.4-1.2-2.3-2.4-3.7-2.7
	c-3.6-0.7-5.9-2.9-8.1-5.5c-2.3-2.7-4.6-5.4-7-8c-0.6-0.7-1.7-1.1-2.7-1.2c-4.9-0.5-6.1-2.6-6.9-7.3c-1-5.5,0.2-10.5,1-15.7
	c0.4-2.4,1.8-3.7,4.1-3.2c4.3,0.9,8.2,1.2,12.4-0.9c2.4-1.2,5.7-0.9,8.6-1c4.3-0.2,5.3-1.1,6.1-5.3c0.5-2.9,1.4-5.7,2-8.4
	c3.8-2.8,7.5-4.6,12-1.6c1.8,1.2,3.9,1.9,5.9,2.5c3,0.9,3.9,2.9,3.8,5.8c-0.3,6.7-0.6,13.4-0.9,20.1c0,0.1-0.1,0.2-0.1,0.3
	c-0.2,0.4-0.6,0.9-0.5,1c1.4,2.4,2.8,4.7,4.2,7.1c0.1,0.2,0.2,0.4,0.4,0.6c0.2,0.4,0.4,0.9,0.6,1.3c0.1,0.2,0.3,0.4,0.4,0.6
	c0.9,2,1.6,4.1,2.6,6c1.2,2.1,1.2,4-0.4,5.9c-2,2.3-4,4.5-6,6.8c-0.2,0.1-0.4,0.3-0.5,0.4c-1.4,0.8-2.8,1.7-4.2,2.5
	c-0.2,0.1-0.3,0.3-0.5,0.4c-0.8,0.5-1.6,1-2.3,1.5c-0.2,0.1-0.4,0.2-0.5,0.4c-0.5,0.2-0.9,0.4-1.4,0.6c-0.2,0.1-0.4,0.2-0.5,0.4
	c-0.8,0.5-1.6,1-2.3,1.5C469.1,302.7,468.9,302.7,468.8,302.8z"/>
<path id="Viggianello" class="st0" d="M749.1,711.2c-0.4,0.6-0.9,1.2-1.4,2c-1.7-0.7-3.4-1.5-5.6-2.4c-2.4,2.4-5,5-7.6,7.6
	c-0.7-0.3-1.5-0.6-2.2-0.9c-1.2,0.2-2.3,0.5-2.9,0.6c-1.7-1.2-2.9-2.2-4.2-3.1c-0.1-0.1-0.2-0.2-0.4-0.3c-0.2-0.2-0.3-0.3-0.5-0.5
	c-0.2-0.1-0.3-0.3-0.5-0.4c-0.2-0.2-0.3-0.3-0.5-0.5c-0.2-0.1-0.3-0.3-0.5-0.4c-1.4-1.1-2.9-2.3-4.3-3.4c-0.1-0.1-0.2-0.2-0.3-0.3
	l-1.3-1.3c-0.1-0.1-0.2-0.2-0.3-0.3c-1.9-1.6-3.8-3.2-5.7-4.8c0,0-0.1-0.1-0.1-0.1c-0.4-0.4-0.9-0.8-1.3-1.3l-1.6-1.5
	c-0.5-0.6-1.1-1.2-1.6-1.9l0,0c-0.6-1.8-1-3.6-1.8-5.2c-0.5-1-1.6-1.7-2.4-2.6c-0.1-0.1-0.2-0.2-0.3-0.3c-3.4-2.2-6.7-4.3-10.4-6.7
	c3.1-1.9,2.8-4.3,1.6-7c-0.6-1.3-0.3-3-0.5-4.5c0.1-0.1,0.1-0.3,0.2-0.4c0.2-0.4,0.4-0.9,0.6-1.3c0.1-0.2,0.2-0.3,0.3-0.5
	c0.2-0.4,0.4-0.9,0.6-1.3c0.1-0.1,0.2-0.2,0.3-0.3c2.2-4.1,4.3-8.3,6.5-12.3c0.7-1.2,1.7-2.3,2.6-3.4c0.1,0.1,0.2,0.1,0.3,0.2
	c2.6,0.5,5.3,1.1,7.9,1.6c0.1,0.1,0.2,0.2,0.3,0.3c0.4,1.3,0.4,3.1,2.6,1.7c0.1-0.1,0.2-0.1,0.3-0.2c0.2-0.2,0.4-0.4,0.6-0.6
	c0.1-0.1,0.2-0.2,0.4-0.4c0.2-0.2,0.4-0.4,0.6-0.6c0.1-0.1,0.2-0.2,0.4-0.4c0.2-0.2,0.4-0.4,0.6-0.6c0.1-0.1,0.2-0.2,0.3-0.3
	c1.5-1.2,3.1-2.4,4.6-3.5c0.4-0.4,0.8-0.8,1.2-1.2c1.9,0.6,2.4,0.7,4.3,1.2c0,0,0,0,0,0c0.3,1.2,0.6,2.4,0.9,3.6
	c0.6,0.9,1.2,1.8,1.8,2.8c0,0,0,0,0,0c1.9,3.2,3.9,6.4,5.8,9.6c1.1,1.7,2.3,3.4,3.4,5.1c0.6,0.9,1.3,1.8,1.9,2.8
	c0.9,1.2,1.8,2.5,2.7,3.7c1.2,1.8,2.5,3.6,3.7,5.4c0,0,0,0.1,0,0.1l-0.1,9.1c-0.3,0.8-0.8,1.6-0.8,2.5c-0.1,2.9-0.1,5.7-0.1,8.6
	c-2.4,2.5,0.6,3,1.7,4.5c0.1,1.1,0.2,2.3,0.4,3.6C749.3,711,749.2,711.1,749.1,711.2z"/>
<path id="Bernalda" class="st0" d="M946.3,423.5c2.6-0.8,4.8-1.3,6.5,1.2c0.4,0.6,0.9,1.3,1.2,2.1c3.4,7.7,10.4,11.3,17.5,15.5
	c2.6-3.3,4.8-6.6,7.5-9.4c3.1-3.1,6.4-6.2,10.1-8.4c3.1-1.8,4.3-4.1,4.9-7.3c0.2-1,0.9-1.9,1.5-3.1c1.5,0.7,2.9,0.9,3.7,1.8
	c4.4,4.4,9.9,8.2,10.2,15.3c0.2,3.4,2.5,5.3,4.5,7.4c0.4,0.5,1.4,0.8,1.4,1.2c0,4.2,3.9,5.1,6.2,7.6c1,0.2,2,0.3,3.3,0.5
	c-0.1,5.1,4.3,4.8,7.6,5.8c-2.6,11.5-11.2,19-15.9,29.6c-2.3-1.7-4.2-2.7-5.5-4.2c-1.4-1.6-2.1-3.7-3.2-5.6c-0.6,0-1.3-0.2-1.7,0
	c-3.4,1.8-5.1-0.1-6-3c-2-6.4-7-8.9-12.8-10.4c-3.5-0.9-7-1.5-10.4-2.2c-0.9,1.3-1.6,2.2-2.3,3.2c-2.5-2.6-5.2-2.9-8.4-0.7
	c-2.1-1.1-4.4-2.3-6.1-3.1c-2.5,0.3-4.4,0.6-6.8,0.9c0.6-1.7,1-2.8,1.6-4.8c-2.2,1.3-3.6,2.2-5.3,3.1c-1.6-3.2-3.4-5.8-1.7-9.7
	c3-7,3.4-14.1-0.6-21C946.9,425.2,946.7,424.5,946.3,423.5z"/>
<path id="Grottole" class="st0" d="M806.4,346.7c-0.1-0.2-0.6-0.9-0.8-1.3c1.2-7.8,2.5-15.2,3.5-22.7c0.4-3.1-0.2-6.2,0-9.4
	c0.3-5,3.5-8.5,6.8-11.6c1.1-1.1,3.8-0.7,5.7-0.9c0.1,0.3,0.2,0.5,0.2,0.8c5.2-3.5,10.4-7,15.4-10.7c4-2.9,6.1-3.3,9.7-0.1
	c1.3,1.1,1.6,3.5,2.1,5.3c0.5,1.9,0.8,3.9,1.2,5.8c0.4,1.8,1,3.7,1.5,5.7c-1.4,2.9-2.9,5.9-4.7,9.6c4.3,2.2,8.5,4.4,13.3,6.8
	c-0.3,2.8,0.4,5.9,4.4,6.5c0,0.6,0.1,0.8,0,0.9c-6,4.5-6.8,11.7-9.1,18.1c-1.5,4.2-3.3,8.4-5.1,12.9c-7.3-3.5-14-7.4-21.2-10.1
	C822.2,349.7,815,346.6,806.4,346.7z"/>
<path id="Forenza" class="st0" d="M635.7,175.4c0.2,0.2,0.3,0.5,0.5,0.5c5.1-0.3,5.7,3.6,6.8,7.2c-1.1,2.9-2.3,6-3.6,9.5
	c4.5,5.1,9,10.3,13.8,15.7c-3.2,3.7-5.8,7.5-9.2,10.6c-1.4,1.3-4.3,1.4-6.5,1.5c-5.4,0.2-10.8,0.1-17.1,0.1
	c-0.6,1.4-1.5,3.6-2.6,6.1c4.8,1,9.1,1.8,13.8,2.8c0.5,3.3,1,6.6,1.5,10.1c-3.4,1.1-6.1,2.3-9.6,1.7c-4.8-0.9-9.7-1-14.6-1.2
	c-3.7-0.2-4.5-0.9-4.5-4.4c0-1.5,0-2.9,0.1-4.4c0-0.3,0.1-0.6,0.4-1.5c2.1-0.4,4.4-0.8,7.4-1.4c-1.1-2.7-2.1-5.2-3.1-7.7l-0.1-0.2
	c0.3-2.6-0.7-4.3-3.6-4.4c-0.1-0.1-0.2-0.1-0.3-0.2c-2.8-1.5-5.6-2.9-8.4-4.4c-2.3-1.2-4.5-2.2-7.3-1.1c-2.1,0.8-4.6,0.8-6.9,1.1
	c-0.1-0.1-0.1-0.1-0.2-0.2c-0.6-0.8-1.1-1.7-1.7-2.5c-0.1-0.1-0.1-0.1-0.1-0.2c0.9-3.7,1.6-7.4,2.9-11c1.4-4,3.2-7.9,5-12.1
	c2,0.4,3.7,0.7,5.5,1l0.2,0.1c1.5,0.6,3,1.1,4.5,1.7c0.1,0,0.2,0.1,0.2,0.1c1.8,1.3,5.1,0.5,7.4-1.8c0.1,0,0.1-0.1,0.2-0.1
	c2.1-0.9,4.3-1.8,6.4-2.6c0.1,0,0.1-0.1,0.2-0.1c0.6-0.3,1.1-0.5,1.7-0.8c0.1,0,0.1-0.1,0.2-0.1c0.6-0.3,1.1-0.5,1.7-0.8
	c0.1,0,0.1-0.1,0.2-0.1c1.5-0.9,3-1.7,4.6-2.6c0.1,0,0.1-0.1,0.2-0.1c1.5-0.9,3-1.7,4.5-2.6c0.1,0,0.1-0.1,0.2-0.1
	c0.6-0.3,1.1-0.5,1.7-0.8c0.1,0,0.2-0.1,0.2-0.1c2.5,0,4.9,0,7.4,0L635.7,175.4z"/>
<path id="Lagonegro" class="st0" d="M612.3,566.3c2,8,4.6,14.9,10.5,20.1c-1,0.8-1.4,1.2-1.9,1.4c-7.4,2.3-11,8.3-15,14.2
	c-1.1,1.6-3,3-4.8,3.7c-6.1,2.3-12.3,4.1-18.5,6.2c-2.3,0.8-4.2,0.7-6.1-1.1c-1.6-1.6-3.8-2.7-5.3-4.4c-3.2-3.4-7-2-10.7-2
	c-0.7,0-1.4,0.1-3.2,0.3c0.4-2.8,0.4-5.3,1.3-7.5c1.3-3.2,1-6-0.5-8.9c-2.2-4.3-2.2-5.7,1.7-8.2c2.6-1.7,3.6-3.4,2-6.2
	c-0.2-0.4-0.1-0.9-0.2-1.4c0.4-0.3,0.7-0.8,1.1-0.9c4.1-1,6.3-3.5,6.4-7.9c0-0.7,2-2,2.9-1.9c2.3,0.2,4.3,0.4,5.3-2.2
	c0.1-0.2,0.3-0.4,0.5-0.5c3.7-2.2,7.2-4.5,11.1-6.4c1-0.5,3-0.1,3.9,0.7c4.3,3.7,8.5,7.6,12.6,11.5
	C607.3,566.6,608.8,569.1,612.3,566.3z"/>
<path id="Montemilone" class="st0" d="M677.1,100.5c3.8-3.1,7.8-0.8,9.5,1.6c2,2.9,6.9,4.2,5.8,9c-4.2,3-5.7,8.2-3.8,13.2
	c0.4,1,0.7,2.5,0.2,3.3c-2.6,4.6-5.3,9-8.1,13.4c-0.5,0.7-1.9,1-2.9,1.1c-8,0.7-15.6-0.9-23.1-3.5c-6.5-2.3-13.1-4.3-19.6-6.5
	c-0.8-0.3-1.4-0.7-2.6-1.4c2.5-3,4.7-5.8,7-8.4c2.3-2.6,4.5-4.8,3-8.9c-0.8-2.1,0.2-4.8-0.3-7.1c-0.7-2.9-2-5.6-3.2-8.3
	c-0.6-1.4-1.5-2.7-2.4-4.4c1-0.7,1.8-1.4,2.7-1.8c3-1.5,6-3,8.9-4.5c0.9-0.5,2-1.3,2.4-2.2c3.4-6.5,12.3-8.7,18.6-4.4
	c0.2,0.1,0.2,0.4,0.4,0.7c-0.4,0.7-0.9,1.4-1.6,2.4C670.9,89.2,673.9,94.6,677.1,100.5z"/>
<path id="Calvello" class="st0" d="M626.1,395c0.8,3.5,1.5,6.4,2.3,9.5c6.2,0.5,12.8-2.1,18.5,3.4c0,0.1,0.2,0.9,0.2,1.7
	c0.3,4.9,1.2,9.8,0.8,14.6c-0.3,4.4-2,8.7-3.1,13c-0.4,1.6-1.2,3.1-1.6,4.7c-0.7,2.5-2,4.2-4.2,5.7c-4.8,3.3-9.4,6.9-14.1,10.5
	c-0.7,0.6-1.5,1.1-2.2,1.6c-2.3-2.6-4.2-5.4-6.7-7.4c-6-4.7-12.3-8.9-18.5-13.3c-0.3-0.2-0.7-0.6-1-0.6c-4.6-0.1-5.3-3.6-6.5-6.9
	c-1.7-4.7-3.5-9.4-5.2-14c-0.4-1.1-0.7-2.2-1.2-3.9c8.1-0.9,16.4,0.8,23.4-4.2C613.1,404.9,621.3,402.9,626.1,395z"/>
<path id="Terranova_di_Pollino" class="st0" d="M776.8,664.8c0.8-2.8,1.6-5.6,2.6-9.1c3.7,4.8,7.1,9.3,10.8,14.1
	c5.8-3.5,11.5-7,17.4-10.6c2.5,4.7,4.2,9.7,7.5,13.6c3.2,3.8,7.8,6.3,12.6,9.9c-4,7.1-8,14.1-12.2,21.6c2.6,3.2,5.4,6.7,8.4,10.3
	c-0.4,1.7-0.8,3.8-1.3,6.2c-1-0.2-1.9-0.4-3.1-0.7c0.7-4.7-3.4-5.5-5.8-7.8c-1.1-1.1-2.7-2-3.3-3.4c-2.2-5.2-6.6-5.3-11.2-5.4
	c-3.5-0.1-7.1-0.4-10.6-0.5c0-0.3,0-0.6,0-0.8c-4.6,1.8-9.1,3.6-14.9,5.9c-1.5-0.3-4.5-0.9-8-1.5c0,6,0,11.2,0,17.3
	c-3.5-2.1-6.3-3.8-9.1-5.5c0.5-1.6,0.9-2.7,1.3-3.8c0.1-0.1,0.1-0.2,0.2-0.3c0.2-0.5,0.4-1,0.7-1.5c0.1-0.1,0.2-0.3,0.3-0.4
	c0.5-0.8,1.1-1.6,1.6-2.4c0.1-0.2,0.2-0.3,0.3-0.5c0-2.4,0-4.7,0-7.1c-0.1-0.2-0.2-0.4-0.3-0.6c0.7-3.4,1.4-6.8,2.1-10.1
	c0.3-0.6,0.7-1.3,1-1.9c1.6-2.5,3.2-5.1,4.8-7.6c4.5-3.6-1.2-6.6-0.5-10c1.3-1,2.6-2.1,4-3.2c0.1-0.1,0.3-0.2,0.4-0.3
	c1.9-0.6,4.2-0.7,4.4-3.5C776.6,665,776.7,664.9,776.8,664.8z"/>
<path id="Senise" class="st0" d="M793.4,610.2c-1.1,2.9-2,5.2-3,7.9c-2.4-2.1-4.5-4-7.1-6.4c4.1-2.2,7.6-4.1,12-6.5
	c-1.6-2.2-2.7-4.4-4.4-5.7c-3-2.3-6.3-4.2-9.6-6.2c-2.1-1.3-3.1-2.9-2.8-5.5c0.5-4.8,0.5-9.7,1-14.4c0.1-1.3,1.2-3,2.3-3.6
	c3.8-2.3,7.9-3.9,11-7.6c1.7-2.1,5.9-2.2,9-3c4.6-1.2,9.2-2.2,13.8-3.5c3-0.8,5.8,0.1,7.3,2.9c0.8,1.5,1.5,3.1,2.2,4.8
	c1.6,3.9,3.1,7.7,7.5,9.3c0.3,0.1,0.5,0.4,0.7,0.6c0.1,0.2,0.2,0.4,0.5,0.9c-1.7,2.4-3.4,4.8-5.3,7.6c2.2,2,4.2,3.8,6.5,5.8
	c-1,1.2-1.9,2.2-2.7,3.2c-6.6,8.5-15,14.7-24.1,20.1c-0.8,0.5-2,0.4-2.9,0.4C801.3,610.9,797.4,610.5,793.4,610.2z"/>
<path id="Aliano" class="st0" d="M755.1,484.7c2.8-0.4,5.7-1,8.5-1.1c2.3-0.1,5.2-0.5,6.8,0.6c5.6,4,11.2,3.1,17,1.2
	c1.5-0.5,3.1-0.9,5-1.3c6.9,2.4,14.3,4.3,21.1,7.5c3.4,1.7,5.7,5.8,9,9.3c-6.7,2.6-7.7,8.9-11.3,12.9c-2.8,3.1-6.6,5.5-10.1,7.8
	c-0.9,0.6-2.7-0.6-4-0.5c-5,0.3-10,0.6-15,1.2c-3.1,0.3-6.1,1.1-9.1,1.5c-3.3,0.4-6.6,0.7-9.9,0.9c-0.9,0.1-1.8-0.1-2.7-0.2
	c-0.5-2-1-3.7-1.5-5.5l-0.1-0.1c-0.6-0.9-1.1-1.8-1.7-2.7c0-0.1-0.1-0.1-0.1-0.2c-0.3-0.6-0.5-1.1-0.8-1.7c0-0.1-0.1-0.1-0.1-0.2
	c-0.6-0.9-1.1-1.8-1.7-2.7c-0.1-0.1-0.1-0.1-0.2-0.2c-0.6-0.9-1.1-1.8-1.7-2.7c-0.1-0.1-0.1-0.1-0.2-0.2c-0.6-0.9-1.1-1.8-1.7-2.7
	c-0.1-0.1-0.1-0.1-0.2-0.2c-0.6-0.9-1.1-1.8-1.7-2.6c-0.1-0.1-0.1-0.1-0.2-0.2c-0.3-0.6-0.5-1.1-0.8-1.7c0,0-0.1-0.2-0.1-0.2
	c0.8-0.6,1.6-1.5,2.5-1.7c2-0.6,4.1-0.9,6.8-1.5c-0.7-1.4-1.2-2.3-1.7-3.3c0-0.1-0.1-0.2-0.1-0.2c-0.6-1.5-1.2-3-1.7-4.5
	c0-0.1-0.1-0.2-0.1-0.2c-0.1-1.1-0.2-2.1-0.3-3.1c0.7-0.5,1.4-1,2.1-1.5C754.9,484.8,755,484.7,755.1,484.7z"/>
<path id="Marsico_Nuovo" class="st0" d="M594.7,466.8c0,3.8-3.1,4.9-6,6.7c-0.9-0.8-1.8-1.4-2.5-2.2c-3.1-4.1-6.3-8.2-9.3-12.4
	c-2.1-3-4.8-2.7-7.7-2.3c-1.4,0.2-3,0.3-4.2-0.3c-5-2.7-10.1-3.4-15.5-1.3c-0.7,0.3-1.9-0.1-2.6-0.5c-3.4-2.2-3.5-2.3-7.2-0.3
	c-2.6-4.5-6.4-8.7-3.4-14.6c0.4-0.9,0.4-1.9,0.6-2.9c0.1-0.1,0.1-0.3,0.2-0.4c0.5-1.4,1-2.8,1.6-4.2c0.1-0.2,0.3-0.3,0.4-0.5
	c0.2-0.2,0.3-0.3,0.5-0.5c0.1-0.2,0.3-0.3,0.4-0.5c0.9-0.9,1.7-1.7,2.6-2.6c0.1,0,0.1-0.1,0.2-0.1c0.8-0.5,1.7-1.1,2.5-1.6
	c0.1-0.1,0.2-0.2,0.3-0.2c0.8-0.5,1.7-1.1,2.5-1.6c0.1-0.1,0.2-0.2,0.3-0.2c0.8-0.6,1.7-1.1,2.5-1.7c0.1-0.1,0.2-0.2,0.3-0.3
	c0.2-0.2,0.4-0.4,0.6-0.6c0.1-0.1,0.2-0.2,0.3-0.3c0.8-0.5,1.7-1.1,2.5-1.6c0.1-0.1,0.2-0.2,0.3-0.2c0.8-0.5,1.7-1.1,2.5-1.6
	c0.1-0.1,0.2-0.2,0.3-0.3c0.2-0.2,0.4-0.4,0.6-0.6c0.1-0.1,0.2-0.2,0.3-0.3c1.2-0.9,2.3-1.7,3.5-2.6c0.1-0.1,0.2-0.2,0.3-0.3
	c0.2-0.2,0.4-0.4,0.6-0.6c0.1-0.1,0.2-0.2,0.4-0.4c0.2-0.2,0.4-0.4,0.6-0.6c0.1-0.1,0.2-0.2,0.4-0.3c1.5-1.2,2.9-2.3,4.4-3.5
	c0.1-0.1,0.2-0.2,0.3-0.3c0.2-0.2,0.4-0.4,0.6-0.6c0.1-0.1,0.2-0.2,0.3-0.2c6.1,2.9,12.2,5.6,14.2,13.3c1.6,6.3,4.5,12.3,7.4,17.9
	c1,0.9,1.9,1.8,2.9,2.7c0,0.1-0.1,0.1-0.1,0.2c-0.3,0.5-0.5,1.1-0.8,1.6c-0.1,0.1-0.1,0.2-0.2,0.3c-0.3,0.7-0.9,1.3-0.8,2
	c0.3,6.7,0.6,13.3,1,20c0,0.4,0.5,0.9,0.8,1.3C594.7,466.7,594.7,466.7,594.7,466.8z"/>
<path id="Abriola" class="st0" d="M575.1,400.4c-8.7-8.1-12.7-18.4-14.1-30.8c3.8-2,8-4.2,12.7-6.6c0.2,2.5,0.3,3.8,0.5,5.7
	c7.9-3.4,13.3-0.7,16.5,7c2.8-1.6,5.3-2.9,7.5-4.4c2.8-1.9,5.7-2.9,9.1-2.8c3.1,0.1,6.1-0.6,10.4-1c1.4,3.4,3.6,7.5,4.9,12
	c1.3,4.5,1.5,9.2,2.5,15.2c-1.3,1.4-3.1,4.1-5.5,5.8c-4.5,3.1-9.5,5.5-14,8.5c-3.9,2.6-8.4,2.6-12.7,3.3c-1.9,0.3-4-0.2-5.9,0.1
	c-6.4,0.9-10.2-3.9-15.4-6.5C572.8,404,573.7,402.5,575.1,400.4z"/>
<path id="San_Fele" class="st0" d="M461.2,225.2c1.7,0,3.1-0.2,4.3,0c3.7,0.8,6.8,0.3,9.3-2.9c4.2-5.3,10.4-6.5,16.6-7.8
	c3.5-0.7,6.9-2.2,10.4-3.4c0.6-0.2,1.3-0.6,1.5-1.1c1.3-3.5,4.4-3.6,7.2-3.9c2.7-0.3,3.7-1.6,3.8-4.2c0.1-1.5,0.5-2.9,0.8-4.7
	c1.2-0.3,2.4-0.6,4.2-1.1c-1.8,7.2-3.4,13.8-5.1,20.6c1.5,1.1,2.8,2.1,4.4,3.3c3.3-2.9,6.5-5.6,9.7-8.3c2.5,1.3,4.8,2.5,7.2,3.6
	c0.1-0.2,0.3-0.4,0.4-0.6c0.4,0.6,0.7,1.2,1.2,2.1c0.7-0.8,1.2-1.4,1.9-2.4c0.1,4.5,2.1,6.3,6.8,5c-0.1,1.3-0.2,2.3-0.3,3.4
	c-0.1,1-0.3,2-0.5,3.1c-0.4,2.4-0.3,5.2-1.5,7.1c-1.1,1.8-3.7,2.8-5.9,4.3c0.7,2.1,1.4,4.3,2,6.1c-3.1,2.5-5.8,4.9-8.7,6.9
	c-1.1,0.8-2.9,1.2-4.3,1c-10.6-1.7-20.3-5.6-29.1-11.7c-3.3-2.3-6.7-1-10,0c-1.7,0.5-3.3,1.1-4.8,0.9c-3.7-1.6-7.2-3.6-11-4.7
	C466.3,234.2,464.3,229.5,461.2,225.2z"/>
<path id="Laurenzana" class="st0" d="M678.6,395.4c0.6,3.4,1.2,6.7,1.9,10.5c2.4-0.5,4.2-0.9,6.2-1.4c2.6,4.1,5.2,8,7.5,12.2
	c0.5,0.9,0.4,2.6-0.1,3.6c-1.8,3.1-1.4,6.2-0.7,9.4c0.4,1.9,0.3,3.9,0.4,5.4c-4.5,3.3-8.3,6.8-12.8,9.2c-4.4,2.3-9.4,3.6-14.1,5.2
	c-1,0.3-2.1,0.4-2.9,0.9c-7.5,4.1-13.3-0.7-19.3-3.7c-0.7-0.4-1.1-2.4-0.8-3.4c1.4-4.6,3.3-9.1,4.5-13.8c0.6-2.3,0.2-4.9,0.2-7.4
	c-0.1-5.3-0.3-10.6-0.2-15.9c0-0.7,1.4-1.6,2.3-2c3.4-1.2,6.8-2.2,10.3-3.1c2.9-0.7,4.7-2,5.6-5.1c0.8-2.7,2.1-5.2,3.2-7.7
	c4.1,0,7.1,2.3,8,5.7c0.1,0.4,0.5,0.8,0.8,1.1C678.5,395.2,678.5,395.3,678.6,395.4z"/>
<path id="Miglionico" class="st0" d="M916.6,368.1c-6.3-2.6-11,1.6-16.1,4.5c-1,0.6-2.6,0.4-3.9,0.4c-1.6-0.1-3.3-0.3-4.9-0.7
	c-7.6-1.6-13.1,1.8-17.7,7.3c-0.6,0.8-1.5,1.4-1.8,1.6c-6.8-6.2-13.5-12.1-20.5-18.4c0.6-1.7,1.4-3.7,2.2-5.8
	c2.1-6,3.9-12.2,6.5-18.1c1.3-3,4-5.3,5.9-7.8c7.5,2.5,14.3,4.7,21,7c8.6,3,17.2,6.1,25.6,9.4c1.6,0.6,2.8,2.7,3.9,4.2
	c0.6,0.9,0.7,2.1,1.2,3.1C920.7,359.4,920,363.5,916.6,368.1z"/>
<path id="Moliterno" class="st0" d="M626.3,542.4c9,9.7,13.3,21.3,16.8,33.3c0.6,2.1,0.5,4.4,0.7,7c-1.7-0.5-2.8-0.8-4.4-1.2
	c-1.1,2.5-2.3,4.9-3.5,7.7c-6.2-1.3-12.7-1.6-16.2-7.9c-2.3-4.2-4-8.7-5.9-13.1c-0.4-0.8-0.8-1.7-1.2-2.7c-1.3,0.4-2.3,0.7-3.9,1.1
	c-5-4.6-10.1-9.5-15.5-14.5c2.9-2.4,2.6-4.5,0.6-7.3c-2.6-3.4-1.6-6.3,1.9-8.9c0.8-0.6,1.7-1.2,2.5-1.7c0.4-4.1-4.4-8.6,1.2-12.2
	c0.2-0.7,0.4-1.4,0.5-1.7c3.2-0.5,6.1-1.1,9.1-1.5c1.1-0.2,2.4-0.5,3.3-0.1c5.5,2.6,11,5.3,16.7,8.1
	C628,532.2,627.1,537.3,626.3,542.4z"/>
<path id="Accettura" class="st0" d="M710,374.6c3.8-2.4,7.3-4.7,10.9-6.8c0.4-0.3,1.3-0.1,1.8,0.1c4.9,2.2,9.8,4.4,14.6,6.9
	c1.3,0.7,2.1,2.3,2.9,3.6c2.2,3.7,4.4,7.4,6.4,11.1c0.5,0.9,1.1,2.2,0.8,3.1c-0.8,2.9,0.6,4.3,2.9,5.7c3,2,5.4,4.9,9.8,2.9
	c3.1,3.9,6.4,7.6,9.1,11.6c0.7,1,0.1,3.1-0.2,4.7c-2.1,10.7-9.3,17.1-21.2,17.9c-2-2.2-4.4-5.2-7.2-7.8c-2.3-2.1-4.8-4.3-7.6-5.5
	c-6.2-2.4-9.2-8-13.2-12.6c-0.5-0.6,0.1-2.7,0.7-3.7c1.4-2.2,3.2-4.1,5-6.2C720.4,391.3,715.3,383.2,710,374.6z"/>
<path id="Corleto_Perticara" class="st0" d="M700.6,475.6c-4.9,1.9-9.4,0.7-13.8-0.5c-3.9-1.1-7.6-1.9-11.8-1
	c-3.5,0.7-7.2,0.2-11.7,0.2c-1.8-6-3.9-12.9-6.2-20.4c3.4-1.2,6.2-2.5,9.2-3.1c8.3-1.8,16.1-4.8,22.4-10.7c0.7-0.6,1.6-1.1,2.4-1.6
	c3.9-2.5,4.7-5,3.3-9.5c-1.2-3.7-0.6-6.6,1.9-8.7c2.3,3.1,4.6,6.1,6.8,9.1c3.1-0.4,6.1-0.9,9.5-1.3c3.6,2.6,7.4,5.5,11.4,8.5
	c-4.1,5.4,0.7,10.6-0.5,16.3c-4.1,2.4-8.3,5-12.8,7.3c-4.6,2.4-7.7,5.7-8.7,10.9C701.8,472.5,701.1,474.2,700.6,475.6z"/>
<path id="Sant_x27_Arcangelo" class="st0" d="M831.7,500.8c-1.2,3.7-2.3,6.5-3,9.3c-0.3,1.2-0.6,2.9-0.1,3.8
	c4.1,6.6,1.5,13.2,0,19.5c-1.6,6.8-4.1,13.4-6.3,20.2c-0.1,0.4-0.4,0.8-0.6,1.3c-6.5-1.8-12.1,1.6-18.1,2.6
	c-2.9,0.5-5.6,1.6-8.5,2.3c-3,0.7-8-1.9-9.9-5.1c-2.2-3.7-4.4-7.3-6.4-11.1c-0.8-1.5-1.2-3.3-1.3-5c-0.3-4.4-0.4-8.9-0.7-14.2
	c3.4-0.7,7.6-1.9,11.9-2.5c2.5-0.3,5.3,0,7.8,0.5c3,0.7,5.2-0.4,7.7-2c5.1-3.4,8.8-7.8,11.7-13.1c1.1-2,3.3-4,5.5-4.8
	C824.5,501.5,827.8,501.5,831.7,500.8z"/>
<path id="Viggiano" class="st0" d="M620.5,463.8c4.5-4,9-8.1,13.6-12.1c1.7-1.5,3.8-2.7,5.9-3.6c1.3-0.5,3.1-0.6,4.5-0.1
	c2.4,0.8,4.6,2.2,6.9,3.1c3.4,1.3,5.3,3.3,6.1,7c0.9,4.5,2.4,9,3.9,13.4c0.9,2.6,1.2,4.8-2.1,6.2c1.3,4.7,2.6,9.2,3.8,13.8
	c-0.6,3.4-1.3,6.8-2,10.7c-4.5-0.4-8.8-0.9-13-1.3c-3.5-0.3-7.1-0.1-10.3-1.2c-4.5-1.5-8.8-3.9-13.1-6c-2.8-1.4-5.4-3.4-8.3-4.7
	c-2.9-1.2-4-3-3.5-6.1c0.1-0.6,0-1.3-0.1-1.9c0-0.1,0.1-0.2,0.2-0.3c0.5-2.7,1.1-5.5,1.6-8.2c0.1-0.1,0.2-0.2,0.3-0.3
	c0.6-0.8,1.1-1.7,1.7-2.5c0.1-0.1,0.2-0.2,0.2-0.3c0.6-0.8,1.1-1.7,1.7-2.5c0.1-0.1,0.2-0.2,0.2-0.3c0.6-0.8,1.1-1.7,1.7-2.5
	C620.4,463.9,620.4,463.8,620.5,463.8z"/>
<path id="San_Mauro_Forte" class="st0" d="M832,441.9c-1.8-0.2-3.7,0-5.4-0.5c-9.6-3.4-19-7.3-28.8-10.3c-6.8-2.1-14-3.1-21-4.5
	c-2.5-0.5-5.1-0.8-8.2-1.3c0.6-2.8,0.9-5.6,1.8-8.3c0.8-2.4,0.3-4.3-1.2-6.1c-2.6-3.1-5.2-6.4-8-9.9c3.4-3.8,9.9-5.5,8.3-12.1
	c3.7-2.1,6.9-1.1,10,0c5,1.9,10,2,15.1,0.8c0.8-0.2,1.9,0.1,2.7,0.6c1.1,0.7,2,1.9,3.1,2.5c3.8,2.2,5.4,5.2,4.9,9.6
	c-0.1,1.1,0.7,2.5,1.5,3.5c1.4,1.7,3,3.2,4.7,4.7c3.6,3.4,6.7,7,8.4,11.8c0.9,2.6,3.4,4.5,5,6.9c2.6,3.7,5,7.6,7.5,11.3
	C832.3,441.1,832.2,441.5,832,441.9z"/>
<path id="Avigliano" class="st0" d="M590.7,269.1c-3.9,0.3-7.4,0.6-11.2,0.9c1,3.1,1.8,5.4,2.8,8.2c-3,2.8-6.1,5.7-9.3,8.7
	c-0.7-0.3-1.2-0.4-1.7-0.6c-4.6-2.3-9.2-4.8-13.9-7c-1.9-0.9-2.3-2.1-2.2-4c0.5-5.3,0.7-10.6,1.5-15.8c0.7-4.5,2.3-8.9,3.5-13.5
	c2.2,0.5,3.9,0.8,5.7,1.2c1.3-5.2-3.6-10.4,0.1-15.6c1.8,0.1,3.4,0.2,5.8,0.4c1.7-4.5,3.4-9.2,5.1-14c0.8,0.3,1.3,0.3,1.4,0.6
	c3.1,4,7.5,4.7,12.1,5.5c4.5,0.8,8.8,2.9,13.1,4.4c-0.3,3.8-0.4,7.1-0.9,10.4c-0.2,1.1-0.9,2.4-1.7,3.2c-1.8,1.8-3.9,3.5-5.9,5.1
	c-3.3,2.7-2.6,6.6-3.2,10C591.2,261.2,591.1,265.2,590.7,269.1z"/>
<path id="San_Chirico_Raparo" class="st0" d="M692.3,581.9c-0.7-4.5-1.4-8.4-1.9-12.4c-0.3-2.4-1.3-4.1-3.6-5
	c-2.8-1.1-5.4-2.8-8.1-4c-2.8-1.2-5.8-2.1-8.9-2.7c-1.8-1.4-2.1-3.2-0.5-5.3c0.4-0.6,0.9-1.1,1.2-1.8c1.3-3.1,3.6-3.5,6.4-2.3
	c9.1,3.9,18.5,1.2,27.8,1.4c0.9,0,2.2-1.7,2.6-2.8c1.4-4.6,2.6-9.3,3.9-14c0.2-0.8,0.7-1.6,1.6-3.3c2.3,9.2,6.5,15.2,16.7,14.8
	c2.2-5.3,4.5-11.1,7.1-17.3c1.3,0.8,2.1,1.3,2.5,1.5c-0.8,7-1.5,13.5-2.4,19.9c-0.8,5.8-1.9,11.7-3,17.5c-0.3,1.5-1.4,3-2.4,4.3
	c-2,2.6-4.1,5-6.2,7.5c-3.2,4-3.9,4.4-8.9,2.6c-4.9-1.7-9.5-1.1-14.3,0C698.7,581.3,695.6,581.5,692.3,581.9z"/>
<path id="Banzi" class="st0" d="M674.5,211.3c-0.5-0.2-1.1-0.4-1.6-0.7c-2.2-1.5-4.4-3.1-6.6-4.6c-2.2-1.4-3-2.9-2.1-5.7
	c3-9.8,5.4-19.8,8.8-29.5c1-2.8,4.7-4.6,6.9-7c4.2-4.5,8.5-4.7,13.4-1.1c2.7,2,5.5,3.8,8.4,5.2c4.5,2.1,9.4,3.7,13.8,5.9
	c2,1,3.5,3.1,5.1,4.7c1.2,1.2,2.6,2.3,3.6,3.6c0.6,0.8,1.2,2.5,0.7,3.1c-2.4,3.5-5.6,5.8-10.2,6.1c-3,0.2-6,0.5-8.9,1.2
	c-1.4,0.3-2.7,1.6-3.7,2.7c-1.6,2.1-2.8,4.4-4.2,6.6c-0.5,0.7-1.1,1.4-1.8,1.7c-6.7,2.5-13.4,4.8-20.1,7.2
	C675.7,210.8,675.2,211,674.5,211.3z"/>
<path id="Atella" class="st0" d="M547.9,214.2c-0.5,0.9-0.9,1.8-1.8,3.4c-1.2,0.2-2.9,0.5-4.8,0.9c-0.4-2.4-0.7-4.1-1-6.2
	c-4.4,1.4-8.4,1.7-11.5-2.2c-3.5,3-6.7,5.7-10,8.6c-1.1-0.6-2-1.2-3.1-1.9c1.7-7,3.4-13.9,5.2-21.1c-7.4-1.2-12.5,1.5-16.3,7.8
	c-3-1.9-5.9-3.4-8.4-5.4c-0.7-0.6-0.1-2.8-0.1-3.6c-3.1-7.4-6-14.4-8.8-21.4c0.3-0.3,0.6-0.6,1-0.9c6.2,2,12.4,4,18.6,6
	c3.7-4.4,6.8-8.9,10.7-12.5c3.3-3,7.5-5.2,11.6-7.3c1.2-0.6,3.3,0.3,4.8,0.6c0.1,0.5,0.3,0.7,0.2,0.8c-1.1,2.5,1.1,6.2-2.5,7.6
	c-2.6,1-5.5,1.4-8.2,2.1c-1.2,0.3-2.4,0.7-3.7,1.2c0,3,0,5.8,0,9c3.8,1.1,7.7,2.1,11.5,3.2c2.4,0.7,5,1.1,7.3,2.1
	c1.2,0.5,1.9,2.2,2.8,3.4c1.1,1.6,2.1,3.3,3.7,5.7c2.7-1.9,5.5-3.1,7.3-5.2c2.1-2.5,3.8-2.3,6-0.6c0.9,0.7,1.8,1.3,2.7,2
	c-0.2,0.8-0.4,1.4-0.5,2.1c-0.1,0.1-0.1,0.2-0.2,0.2c-0.2,0.2-0.4,0.4-0.6,0.6c-0.1,0.1-0.2,0.2-0.3,0.3c-2.4,2.1-4.9,4.3-7.3,6.4
	c-0.1,0.1-0.2,0.2-0.3,0.3c-0.2,0.2-0.4,0.4-0.6,0.6c-0.1,0.1-0.2,0.2-0.3,0.4c-0.2,1.2-0.5,2.3-0.7,3.5c-0.1,0.1-0.1,0.2-0.2,0.4
	c-0.2,1.5-0.5,2.9-0.7,4.4c-0.1,0.1-0.1,0.2-0.2,0.4c-0.3,1.5-0.5,2.9-0.8,4.4C548,214,548,214.1,547.9,214.2z"/>
<path id="Brienza" class="st0" d="M535.7,436.3c-1.1,2.1-2.2,4.2-3.5,6.7c-1-0.5-2-0.8-2.9-1.4c-4.3-2.8-8.5-5.8-12.9-8.3
	c-6.5-3.7-9.2-9.6-10.7-16.5c-0.2-1.1-1.2-2.1-1.9-3c-2.3-2.8-5.2-4.4-8.7-5.3c-1.8-0.5-3.5-2.6-4.7-4.4c-1.8-2.5-1.3-4.9,0.9-7.2
	c1.7-1.8,2.9-4.2,4.3-6.3c0.1-0.1,0.2-0.2,0.3-0.4c0.2-0.2,0.3-0.3,0.5-0.5c0.1-0.1,0.3-0.3,0.4-0.4c0.2-0.2,0.3-0.3,0.5-0.5
	c0.1-0.1,0.3-0.3,0.4-0.4c0.2-0.2,0.3-0.3,0.5-0.5c0.1-0.2,0.3-0.3,0.4-0.5c1.4-1.7,2.8-3.4,4.2-5.1c0.2-0.2,0.3-0.4,0.5-0.6
	c2.8,0.6,5.6,1.1,8.4,1.8c2.3,0.6,4.6,1.4,7,2.2c0.2,0.1,0.3,0.2,0.5,0.3c2,0.8,4,1.7,6,2.5c0.2,0.1,0.4,0.2,0.5,0.3
	c0.4,0.3,0.7,0.8,1.2,0.9c2.6,0.8,4.1,2.3,4.7,5.2c0.6,3,2,5.8,3.1,8.7c0.1,0.2,0.2,0.4,0.3,0.6c0.8,3,1.7,6,2.5,8.9
	c0.1,0.2,0.2,0.4,0.3,0.6c0,1.1,0,2.1,0,3.2c-0.1,0.2-0.2,0.4-0.3,0.6c-0.2,1-0.6,2-0.4,2.9c0.6,2.5,1.6,4.9,2.3,7.1
	c-0.3,1.1-0.4,2-0.6,2.8c-0.1,0.2-0.3,0.3-0.4,0.5c-0.2,0.2-0.3,0.3-0.5,0.5c-0.1,0.2-0.3,0.3-0.4,0.5c-0.5,1.4-1,2.8-1.6,4.3
	C535.9,436,535.8,436.2,535.7,436.3z"/>
<path id="Picerno" class="st0" d="M549.9,310.5c1.1,0.5,2.1,1.2,3.2,1.3c3.9,0.3,4.7,3,5.3,5.9c0.6,2.7,2.1,5.2,0.2,8.2
	c-3.7,6-7.5,12-13.8,15.8c-2.2,1.3-4.9,4-6.5,3.5c-3.3-1-6.1-3.8-9.1-5.9c-0.4-0.3-0.8-0.8-1.1-1.1c-0.1-0.1-0.1-0.1-0.2-0.2
	c-0.2-0.5-0.5-1-0.7-1.5c-0.1-0.1-0.1-0.2-0.2-0.3c0.2-2.1-1.1-2.8-2.9-2.6c-4.4,0.4-8.7,1-13.7,1.5c-0.9-1.1-2-2.6-3.1-4.1
	c-0.1-0.2-0.2-0.3-0.3-0.5c-0.2-0.5-0.4-0.9-0.7-1.4c-0.1-0.1-0.2-0.3-0.3-0.4c-0.5-0.5-1.1-1-1.6-1.5c-0.1-0.1-0.3-0.2-0.4-0.3
	c-0.8-0.5-1.6-1-2.4-1.5c-0.2-0.1-0.3-0.3-0.5-0.4c-0.2-0.2-0.3-0.3-0.5-0.5c-0.1-0.1-0.3-0.2-0.4-0.3c-0.5-1.7-1.1-3.5-1.6-5.2
	c-0.1-0.2-0.2-0.3-0.3-0.5c0-3.2,0-6.5,0-9.7c0.1-0.1,0.2-0.3,0.3-0.4c1.5-2.3,3-4.7,4.5-7c0.1-0.1,0.2-0.2,0.2-0.3
	c0.6-0.2,1.2-0.5,1.7-0.7c0.6,0.6,1.3,1.2,1.9,1.9c2.5,2.2,5.1,4.3,7.6,6.5c0.3,0.3,0.6,0.6,0.9,0.9c0.3,0.3,0.6,0.6,0.9,0.9
	c1-0.3,2-0.6,3-0.9c1.3-0.9,2.5-1.8,3.8-2.7c1.3-0.9,2.5-1.9,3.8-2.8c3.1-2,6.1-2.7,9.3-0.2c0.5,0.4,1.3,0.6,1.9,0.9
	c0.1,0.1,0.2,0.2,0.3,0.3c0.2,0.2,0.4,0.4,0.6,0.6c0.1,0.1,0.2,0.2,0.3,0.3c0.2,0.2,0.4,0.4,0.6,0.6c0.1,0.1,0.2,0.2,0.3,0.3
	c0.9,0.5,1.7,1.1,2.6,1.6c0.1,0.1,0.2,0.1,0.3,0.2c2.1,0.5,4.2,1.1,6.3,1.6C549.8,310.4,549.9,310.4,549.9,310.5z"/>
<path id="Salandra" class="st0" d="M784.1,351.5c1.1-0.4,2-0.9,3-1c5.3-0.4,10.7-0.7,16.1-1.1c0.9-0.1,1.8,0.1,2.6-0.3
	c9-3.8,15.8,3.3,23.9,3.9c0.2,0.4,0.5,0.8,0.7,1.3c-2.9,4.5-5.9,8.9-8.7,13.5c-0.7,1.1-1,2.8-0.8,4.1c0.7,5.2,1.6,10.4,2.6,15.6
	c0.5,2.4,1.4,4.7,2.2,7c0.2,0.7,0.7,1.7,0.5,2.2c-2.6,5.9-5.2,11.8-8.1,18.2c-1.2-0.9-2-1.4-2.7-2c-1.5-1.4-2.8-3-4.4-4.3
	c-3.4-2.7-5.3-5.9-4.7-10.4c0.1-1-0.6-2.7-1.5-3.2c-7.2-4.2-10-11.5-12.6-18.7c-2.5-7.1-4.5-14.3-6.7-21.5
	C785.1,353.8,784.7,352.9,784.1,351.5z"/>
<path id="Craco" class="st0" d="M836.7,484.3c-1.7-6.1-3.7-11.4-4.6-16.9c-0.7-4.8,0-9.8-0.2-14.7c-0.1-3-0.7-6-1.1-9
	c1.1-0.7,1.8-1,2.7-1.5c4.4,1.9,8.8,3.9,13.2,5.7c5.1,2.1,10.4,3.8,15.5,5.9c2.4,1,5.1,2.2,6.7,4.2c3.6,4.3,8.1,6.3,13.4,6.9
	c0.4,0,0.7,0.3,1.1,0.4c5.4,0.8,6.6,4.9,7.4,9.8c-3.8,1-7.6,2.2-11.5,3c-2.5,0.5-3.4,1.6-3.6,4.1c-0.4,4.9-1.3,9.8-2.2,15.9
	C862.4,489.4,851.5,482,836.7,484.3z"/>
<path id="Acerenza" class="st0" d="M654.1,208.7c14.5,10.9,28.6,21.5,43.2,32.5c-2.8,0.6-4.9,1.1-7,1.4c-3.4,0.4-7,1.3-10.3,0.9
	c-7.3-0.7-12.8,2.1-16.2,8.2c-3.5,6.3-8.6,8.2-15.4,7.3c-3.3-0.4-4.9-0.9-7.1-4.1c0.6-1.2,1.2-2.5,1.8-3.8c0.4-0.4,0.8-0.8,1.1-1.2
	c-1.7-1.1-3.2-2.3-5-3.3c-5.5-2.9-6.1-8.1-5.9-13.4c0.1-3.2-1.1-4.6-4.2-5.1c-3.1-0.4-6.2-1.2-9.7-2c0.6-1.8,1-3.1,1.5-4.7
	c1.4,0.1,2.6,0,3.7,0.3c6,1.6,12,0.5,17.6-1.1c2.8-0.8,4.9-4.3,7.2-6.7C651,212.6,652.3,210.8,654.1,208.7z"/>
<path id="Anzi" class="st0" d="M644.5,405.1c-3.9-3.9-9.6-1.8-15-1.2c-0.9-3.4-1.6-6.3-2.3-9.2c-1.3-5.7-2.2-11.5-3.9-17
	c-1.3-4.2-3.5-8.1-5.4-12.3c1.5-4.1,3.1-8.3,4.8-13c7.7,6,14.2,13,23.6,16c2.2-3,4.5-6.1,7-9.5c6.8,8.2,13.2,15.9,19.7,23.7
	c-0.7,1.1-1.2,1.9-1.7,2.7c-1.7,2.9-4,5.7-5,8.9c-1.4,4.6-4.9,5.7-8.8,6.7C653.4,402,649.4,403.5,644.5,405.1z"/>
<path id="Castelsaraceno" class="st0" d="M651.3,564.8c3.7-2.8,7.3-5.6,11.1-8.2c1.1-0.8,2.6-1,4-1.5c1.2,1.9,2.1,3.3,2.9,4.8
	c0.2-0.3,0.3-0.7,0.5-1c2.5,0.7,5.1,1.2,7.5,2.1c2.2,0.8,4.1,2.4,6.4,3c5.1,1.4,5.6,5.4,6.2,9.6c0.2,1.6,0.4,3.3,0.8,4.9
	c0.8,3.2-0.6,5.4-3,7.1c-2.6,1.8-3,4-1.9,6.8c0.7,1.8,0.3,3.3-1.7,4.3c-7.8,3.7-15.6,7.4-23.4,11.1c0,0-0.2-0.1-0.2-0.1
	c-0.5-0.2-1-0.5-1.6-0.7c-0.1-0.1-0.2-0.1-0.3-0.2c-0.5-0.2-1-0.5-1.6-0.7c-0.1-0.1-0.2-0.2-0.3-0.2c-1.5-1.2-3-2.4-4.5-3.5
	c-0.1-0.1-0.1-0.2-0.2-0.3c0.6-3.2-0.7-5.8-2.6-8.2c-0.1-0.1-0.1-0.2-0.2-0.3c-0.2-0.5-0.5-1.1-0.7-1.6c-0.1-0.1-0.1-0.2-0.2-0.3
	c-0.2-0.5-0.5-1.1-0.7-1.6c-0.1-0.1-0.1-0.1-0.2-0.2c-0.6-3.1-1.5-6.2-1.8-9.3c-0.3-2.9,0-5.8,0-8.7c0.1-0.1,0.1-0.1,0.2-0.2
	c0.2-0.2,0.4-0.4,0.6-0.6c0.1-0.1,0.2-0.2,0.3-0.3c1.2-1.5,2.4-3,3.5-4.5c0.1-0.1,0.2-0.2,0.3-0.3c0.2-0.2,0.4-0.4,0.6-0.6
	C651.2,564.9,651.2,564.8,651.3,564.8z"/>
<path id="Latronico" class="st0" d="M707,642.4c-3.8,2.6-6.6,5.5-12.1,4.8c-8.9-1.2-16.4-5.7-24.6-8.2c-0.7-0.2-1.3-1.1-1.7-1.8
	c-0.4-0.7-0.7-1.4-0.8-2.2c-1.2-6.6-4.7-10.5-11.9-9.8c-0.2,0-0.4-0.2-1-0.6c4.2-6.9,5.4-15.6,14.1-19.3c5-2.2,9.7-5,14.7-7.2
	c1.1-0.5,3.3-0.2,4.1,0.7c4.9,5.2,10.2,10.3,14.1,16.3c2.5,3.9,3.1,9.2,4,14c0.2,1.1-1.7,2.6-2.8,4C704.3,636,705.6,639,707,642.4z"
	/>
<path id="Rotondella" class="st0" d="M875.9,591.6c-1-0.9-1.6-1.6-1.9-1.8c0.4-9.5,0.8-18.4,1.4-27.3c0-0.8,0.9-2,1.7-2.3
	c9.2-3.6,18.5-7.1,28.3-10.8c5.8,4.2,12,8.3,17.6,13c10.2,8.5,19.9,17.4,30,26c1.5,1.3,3.7,1.8,5.9,2.8c-2.6,1.5-5,3-7.8,4.7
	c-0.6-1.8-0.8-3.4-1.6-4.6c-0.7-1.1-1.9-2.3-3-2.5c-2.3-0.5-4.8-0.2-7.1-0.6c-2.9-0.5-6.4-0.7-8.4-2.4c-5.4-4.5-11.5-6-18.2-6.6
	c-3.2-0.3-6.4-0.5-9.4-1.3c-6.1-1.6-9.9,2.7-14.3,5.4C884.7,585.8,880.4,588.7,875.9,591.6z"/>
<path id="Scanzano_Jonico" class="st0" d="M952,499c2.9,1.1,5.8,2.2,8.7,3.2c6.2,2.2,12.4,4.4,18.6,6.4c1.2,0.4,2.5,0.3,3.5,0.4
	c2,1,3.8,1.9,5.9,2.9c0.2,0.5,0.5,1.3,0.8,2.1c2,0.8,4.1,1.6,6.2,2.5c-1.7,3.1-2.9,5.8-4.6,8.2c-5.7,8.1-8.4,17.1-9.3,26.9
	c-0.3,3.2-2.8,3.6-5.6,4.3c0.3-1.8,0.6-3.2,1-5.2c-5.5-1.3-10.8-2.6-16.3-3.9c-0.3-1-0.6-1.9-1-3.2c-4.9-1.7-9.2-5.7-15.7-4.4
	c-3.7,0.7-7.7-0.5-12-0.9c0.4-1.9,0.6-3.1,0.9-4.5c4.6-0.5,8.9-1,13.7-1.6c0.1-2.9,0.3-5.7,0.4-8.8c8.2-0.8,7.9-7.9,9.8-12.4
	C955.2,506.5,953.6,502.8,952,499L952,499z"/>
<path id="Tito" class="st0" d="M514.6,353.3c3.2-2.6,6.3-5,9.2-7.5c5.5-4.8,5.5-5,11.4-0.7c2.7,2,4.6,2,7.5-0.2
	c7.2-5.5,13.4-11.7,17.5-20.3c2.1,3.3,3.4,6.7,5.9,8.7c2.5,2.1,6.2,2.8,10,4.4c-3,3.5-5.7,6.3-8,9.3c-0.9,1.2-1.6,2.9-1.8,4.4
	c-0.3,3.1-0.3,6.2-0.1,9.3c0.3,3.4-1,5.6-3.8,7.2c-1,0.6-1.9,1.5-2.7,2.2c1.1,4.9,2.1,9.4,3.2,14.5c-5.5,1.1-10.5,2.1-15.7,3.1
	c-0.2-0.8-0.5-1.3-0.4-1.6c1.6-4.1-0.8-6.9-3.1-9.8c-2.1-2.7-4-5.5-6.1-8.2c-0.9-1.1-2.2-2-3.5-2.8c-5.7-3.4-11.5-6.7-17.2-10
	C516.1,354.9,515.6,354.2,514.6,353.3z"/>
<path id="Grumento_Nova" class="st0" d="M597.6,518.2c0.4-3.3,0.9-5.8,1-8.2c0.4-8.8,5.3-15,11.8-20c1-0.8,3.2-1,4.4-0.4
	c4.1,2,8.2,4.2,12,6.8c5.9,4.1,12.6,5.3,19.5,5.7c4.1,0.3,8.2,0.7,12.3,1.2c0.6,0.1,1.1,0.5,0.7,1.1c0.4,4,1,8.1,1.1,12.1
	c0,1.3-0.9,2.8-1.7,4c-1.3,2-2.9,3.9-4.4,5.8c-0.1-0.4-0.3-0.8-0.4-1.1c-4.1,0.3-8.3,0.5-12.4,1c-5.1,0.7-9.9,1.4-14.6-1.7
	c-2.9-1.8-6.2-2.9-9.1-4.7c-3.9-2.4-7.8-2.9-12.2-1.6C603.1,518.7,600.6,518.2,597.6,518.2z"/>
<path id="Rivello" class="st0" d="M568.4,643.1c-7.2,1.1-13.5-2.3-20.1-4c-1-0.3-2.2-1.7-2.4-2.8c-1-4-2-7.9-6.8-9.3
	c7.1-0.8,9.5-6.4,12.7-11.1c2.2-3.2,4.2-6.5,6.2-9.7c7.7-2,9.6-1.5,16.1,4.2c1.3,1.2,2.7,2.3,4.3,3.5c6.9-2.2,13.6-4.5,20.5-6.6
	c1-0.3,2.3,0.1,3.4,0.2c-0.1,0.1-0.1,0.2-0.2,0.3c-0.5,0.8-1.1,1.6-1.6,2.4c-0.1,0.1-0.2,0.3-0.3,0.4c-0.2,0.5-0.5,1-0.7,1.5
	c-0.1,0.1-0.2,0.3-0.3,0.4c-0.5,0.8-1.1,1.6-1.6,2.4c-0.1,0.1-0.2,0.3-0.3,0.4c-0.5,0.8-1.1,1.6-1.6,2.4c-0.1,0.1-0.2,0.3-0.3,0.4
	c-0.5,0.8-1.1,1.6-1.6,2.4c-0.1,0.1-0.2,0.3-0.3,0.4c-0.2,0.5-0.5,1-0.7,1.4c-0.1,0.1-0.2,0.3-0.3,0.4c-0.5,0.8-1.1,1.6-1.6,2.4
	c-0.1,0.1-0.2,0.3-0.3,0.4c-0.6,0.8-1.5,1.5-1.6,2.3c-0.5,4.4-0.7,8.9-1,13.3c-0.1,0.1-0.1,0.1-0.2,0.2c-0.8,0.5-1.6,1.1-2.5,1.6
	c-0.1,0.1-0.3,0.2-0.4,0.3c-1.1,0-2.2,0-3.3,0c-0.2-0.1-0.3-0.2-0.5-0.3c-1.1-0.2-2.2-0.4-3.3-0.7c-0.2-0.1-0.3-0.2-0.5-0.3
	c-1.7,0-3.4,0-5.1,0c-0.2,0.1-0.3,0.2-0.5,0.3c-1.1,0.2-2.2,0.5-3.3,0.7C568.6,643,568.5,643,568.4,643.1z"/>
<path id="Filiano" class="st0" d="M609.2,221c0.4,2.3,0.7,4.6,1.2,7.6c-1.8-0.1-3.7,0.1-5.3-0.5c-3.3-1.1-6.3-2.7-9.6-3.8
	c-2.4-0.8-5.1-0.8-7.4-1.6c-2.8-1-5.4-2.6-8-4c-1.1-0.6-2-1.6-3.3-2.7c-1.7,5.3-3.3,10.2-4.8,14.8c-2.2-0.2-3.8-0.3-5.3-0.4
	c-5.3,4.7-0.9,9.8-1.2,15.1c-1.5-0.2-3-0.5-4.8-0.8c-1,2.4-2,4.9-3.1,7.5c-1.8-1-3.3-1.9-4.7-2.8c-0.1-0.1-0.2-0.2-0.3-0.2
	c-0.2-0.2-0.4-0.4-0.5-0.5c-0.1-0.1-0.2-0.2-0.4-0.3c-0.8-1.2-1.7-2.3-2.5-3.5c-0.1-0.1-0.2-0.3-0.2-0.4c-0.2-0.8-0.5-1.6-0.7-2.5
	c-0.1-0.1-0.1-0.2-0.2-0.3c0-0.2,0.1-0.5,0-0.7c-3.4-7.3,0-14.4,0.7-21.6c0.2-1.7,0.2-3.5,0.3-5.2c0.1-0.1,0.1-0.1,0.2-0.2
	c0.2-1.5,0.5-2.9,0.8-4.4c0.1-0.1,0.1-0.2,0.2-0.4c0.2-1.5,0.5-2.9,0.7-4.4c0.1-0.1,0.1-0.2,0.2-0.4c0.2-1.1,0.5-2.3,0.7-3.5
	c0.1-0.1,0.2-0.2,0.3-0.3c0.2-0.2,0.4-0.4,0.6-0.6c0.1-0.1,0.2-0.2,0.3-0.3c2.4-2.1,4.8-4.3,7.3-6.4c0.1-0.1,0.2-0.2,0.3-0.3
	c0.2-0.2,0.4-0.4,0.6-0.6c0.1-0.1,0.1-0.2,0.2-0.2c0.7,0,1.4,0,1.9,0c0.2,0.2,0.4,0.3,0.5,0.4c2.1,6.9,7.2,10.6,13.5,13.1
	c1.4,0.5,2.5,1.8,3.8,2.7c0,0.1,0.1,0.2,0.1,0.2c0.6,0.9,1.1,1.7,1.7,2.6c0.1,0.1,0.1,0.1,0.2,0.2c0.7,0.4,1.4,1.1,2,1
	c2.7-0.4,5.3-1.1,8.1-1.7c0.7,0.4,1.6,0.8,2.4,1.2c3.3,1.4,6.6,2.8,9.8,4.1c0.1,0.1,0.2,0.1,0.3,0.2c1.2,1.5,2.4,3,3.5,4.5
	L609.2,221z"/>
<path id="Pietragalla" class="st0" d="M591.9,268.5c0.4-4.4,1.1-8.9,1.3-13.4c0.2-6.8,5.5-9.6,9.9-12.9c1.5-1.1,4.5-0.4,6.8-0.2
	c5.1,0.4,10.2,1.1,15.3,1.6c0.4,0,0.8,0.1,1.2,0c8-3.7,10.8,3.4,15.7,7.1c-0.9,1.7-1.7,3.1-2.5,4.7c1.5,1.4,3.1,2.8,5.1,4.7
	c-3.1,1.5-5.6,3-8.3,3.8c-5.1,1.5-7.3,4.7-7.9,9.9c-0.5,4.7-2,9.2-2.9,13.6C614.3,281.1,603.3,275,591.9,268.5z"/>
<path id="Pietrapertosa" class="st0" d="M712.8,426.8c-3.5,0.5-6.3,0.8-9.4,1.2c-2.3-3.2-4.7-6.5-7-10c-2.6-4-5.1-8-7.4-12.2
	c-0.5-0.9-0.7-3.1-0.1-3.5c8-6.4,9.6-15.9,12.1-24.9c-1.1-4.1-5.7-7.7-2.1-12.7c4.6,5.4,9.5,10.6,13.6,16.3
	c4.2,5.8,7.8,12.1,11.7,18.4c-2.3,2.9-4.5,5.8-6.9,8.7c5.2,6.7,9.8,13.7,18.7,16.4c-2.3,3.9-3.9,7.3-6,10.3
	c-1.2,1.7-5.4,0.7-8.1-1.3C718.9,431.3,715.6,428.9,712.8,426.8z"/>
<path id="Policoro" class="st0" d="M941,545.7c0.6-0.6,1.3-1.1,1.7-1.8c2-3.5,4.9-4.5,8.5-2.9c2.6,1.2,5.3,2.4,7.8,3.5
	c0.3,1.2,0.5,2.1,0.8,3.5c5.1,1.2,10.4,2.5,15.9,3.8c-0.5,2.1-1,3.9-1.5,6.1c1.9-0.4,3.4-0.7,5.9-1.2c-1.9,3-3.4,5.2-4.9,7.5
	c-4.1,6.3-8.4,12.5-12.3,19c-1.1,1.7-1.1,4-1.8,6.8c-2.9-1.2-6.1-1.8-8.3-3.6c-8.5-7-16.7-14.4-24.9-21.7c-0.9-0.8-1.6-1.7-2.6-2.8
	c2.7-2.9,5.3-5.7,7.9-8.5c0.1-0.1,0.3-0.2,0.4-0.3c0.5-0.5,0.9-1,1.4-1.4c0.2-0.2,0.3-0.3,0.5-0.5c0.2-0.2,0.3-0.3,0.5-0.5
	c0.2-0.2,0.3-0.3,0.5-0.5c0.2-0.2,0.3-0.3,0.5-0.5c0.2-0.2,0.3-0.3,0.5-0.5c0.5-0.5,0.9-1,1.4-1.4c0.2-0.2,0.3-0.3,0.5-0.5
	c0.2-0.2,0.3-0.3,0.5-0.5c0.2-0.2,0.3-0.3,0.5-0.5c0.2-0.2,0.3-0.3,0.5-0.5C940.8,546,940.9,545.8,941,545.7z"/>
<path id="Colobraro" class="st0" d="M830.4,531.6c5.7,1.7,11,3.3,16.5,4.9c0.5,3,0.9,5.8,1.4,9c4.9,1.7,9.9,3.2,14.7,5.1
	c4,1.6,8.6,2,11.3,5.9c0.4,0.6,0.9,1.2,1.6,2.2c-3,2.7-5.8,5.3-8.8,7.7c-4.3,3.4-8.8,6.7-13.2,10c-4.5,3.4-9.3,2.1-13.7,0.1
	c-3.6-1.7-6.8-4.3-10-6.7c-1.2-1-2.1-2.6-2.8-4c-1-2-1.6-4.1-2.7-6.1c-1.5-2.7-1.5-5.3-0.5-8.2C826.4,545.1,828.3,538.6,830.4,531.6
	z"/>
<path id="Roccanova" class="st0" d="M738.1,542.8c0.8-5.1,1.5-9.9,2.3-14.7c7.2-0.8,14.2-1.6,21.2-2.3c3.2-0.3,6.5-0.2,9.7-0.5
	c3.5-0.4,4.5,1.8,5.2,4.5c0.1,0.3,0.1,0.6,0.1,0.9c-2,9.8,3.3,17.2,8,24.8c0.9,1.5,2.6,2.5,4,3.6c0.9,0.7,2.1,1.2,3.2,1.7
	c-1.3,2-1.7,3-2.4,3.6c-6.7,6.3-15.7,6.3-22.8,0.5c-8.3-6.8-17-13.2-25.5-19.8C740.2,544.5,739.3,543.7,738.1,542.8z"/>
<path id="Maratea" class="st0" d="M579.1,670c2.8-0.5,5.2-0.9,7.5-1.3c2.5,3.8,3.7,12,2.5,16.1c-4.4,2.6-7.5,5.8-6.7,11.5
	c0.6,4.4-2.6,7.2-4.9,11.4c-2.5-4-4.9-7.3-6.6-10.9c-1.2-2.5-0.8-5.7-2.1-8.1c-2-3.6-4.8-6.8-7.2-10.2c-0.5-0.7-0.6-1.7-1.2-2.3
	c-2.7-2.7-4.3-6.5-8-8.1c-2.5-1-6.4-6.5-6.3-9.5c0.1-2.8,1.8-5.8-1.9-8c-2.3-1.4-4-3.8-6.1-5.9c2.5-3.3,6.7-4.7,11.1-3.3
	c4,1.3,8.1,2.2,12.1,3.7c1.6,0.6,3.3,1.9,4.3,3.3c4.2,6.5,8.1,13.2,12.2,19.8C578.1,668.7,578.6,669.3,579.1,670z"/>
<path id="Palazzo_San_Gervasio" class="st0" d="M684.6,158.7c-2.8,2.2-4.8,4.2-7.1,5.6c-4,2.4-6.1,5.8-7.3,10.2
	c-2.5,9.6-5.2,19.2-8.1,28.8c-0.7,2.4-2.1,4.7-3.3,7.5c-8.5-4.6-12.3-12.8-18.5-18.6c1.9-5.6,5.7-10.6,1.4-16.1
	c4.1-4.4,7.8-8.4,11.8-12.7c-4-3.5-7.6-6.7-11.7-10.3c6.8-2.1,12.8-0.9,19,0.4c0.4-1.9,0.6-3.2,1-5.5c2.5,1.5,4.4,2.9,6.5,3.8
	c3.8,1.8,7.7,3.4,11.6,5.1C681.3,157.4,682.7,157.9,684.6,158.7z"/>
<path id="Pescopagano" class="st0" d="M420.4,235.5c0.8-0.6,1.2-0.8,1.3-1.1c0.8-1.3,2.2-2.8,2-3.9c-0.3-1.1-2.2-1.9-3.6-2.5
	c-1.5-0.7-3.2-1.1-4.8-1.7c0-1.4,0-2.4,0-3.1c-2.6-1.5-5-2.9-7.4-4.3c0.1-0.4,0.2-0.9,0.3-1.3c3.3,0.1,6.6-0.1,9.8,0.5
	c4.4,0.8,5.6-0.3,5.3-4.8c-0.4-4.1-0.1-8.2-0.1-12.4c0-0.6-0.1-1.2-0.1-1.4c-1.9-2.8-6.5-2-6.7-6.5c3.3-1.5,5.3,0.7,8,3.4
	c2.6-0.7,5.7-1.9,9-2.3c2.5-0.3,5.1,0.4,7.6,0.8c2.2,0.4,4.5,0.9,6.7,1.5c1.2,0.4,2.4,1,3.2,1.9c2.3,2.7,4.8,3.2,7.6,0.9
	c0.2-0.2,0.6-0.1,1.2-0.3c0.4,3.6,0.6,7.2,1.3,10.6c1,4.9-0.8,8.1-4.3,11.5c-5.2,5.1-11.4,7.3-18.1,9.2c-3.6,1-7,2.7-10.2,4.6
	C425.7,236.6,423.5,236.9,420.4,235.5z"/>
<path id="Armento" class="st0" d="M723.2,527.7c-1.2,0.2-2.6,0.1-3.7,0.6c-3.8,1.7-7.5,1.3-11.4,0.4c-0.1,0-0.2-0.1-0.2-0.1
	c-1.5-0.6-3-1.2-4.5-1.7c-0.1-0.1-0.2-0.1-0.3-0.2c-0.5-0.3-1.1-0.5-1.6-0.8l-0.2-0.1c-0.2-0.3-0.3-0.7-0.5-0.8
	c-5-1.8-4.8-6.6-6-10.4c-0.6-1.9-1.3-3.9-1.7-5.9c-1.1-4.6-2-9.3-3.2-13.9c-0.3-1.2-1-2.5-1.9-3.2c-1.5-1.3-2.1-2.4-1.2-4.3
	c1-2.1,1.7-4.4,2.7-7.3c2.8-0.8,5.8-1.8,8.9-2.5c0.5-0.1,1.4,1,2,1.6c0,0.1-0.1,0.2-0.2,0.3c-0.5,1-1.1,2.1-1.6,3.1
	c3,0.8,5.6,1.5,8.3,2.3c0.1,0.1,0.2,0.2,0.2,0.3c0.6,0.9,1.1,1.7,1.7,2.6c0.1,0.1,0.2,0.2,0.3,0.3c0.2,0.2,0.4,0.4,0.6,0.6
	c0.1,0.1,0.2,0.2,0.3,0.3c1.4,3.3,4.6,3,7.4,3.6c0.1,0.1,0.2,0.1,0.3,0.2c1.5,0.6,3,1.1,4.4,1.7c0.1,0.1,0.1,0.1,0.2,0.2
	c1.3,0.8,2.5,1.5,4.4,2.7c-2,3.6-4.1,7.3-6.1,11c1.5,5.9,2.9,11.7,4.4,17.6c-0.6,0.6-1.1,1.3-1.7,1.9
	C723.3,527.6,723.2,527.7,723.2,527.7z"/>
<path id="Brindisi_di_Montagna" class="st0" d="M637.2,318.2c4.4,0,8.1-0.9,10.9,0.3c2.4,1,4,4.2,5.5,6.7c1.2,2,1.9,4.4,2.2,6.7
	c0.7,4.8,4.6,5.6,8.1,6.9c1.6,0.6,3.5,0.9,4.8,1.9c1.3,1,2.6,2.6,2.8,4.1c0.1,1-1.3,2.7-2.5,3.4c-4.4,2.7-9.1,4.9-13.2,7.9
	c-3.1,2.3-5.5,5.7-8.2,8.6c-0.6,0.7-1.2,1.4-1.8,2.2c-9.2-3-15.5-9.6-23-15.8C629.7,341,636.8,331.1,637.2,318.2z"/>
<path id="Oppido_Lucano" class="st0" d="M659.5,258.8c3.4-4.2,6.6-8.5,10.2-12.4c1-1.1,3-1.4,4.6-1.6c4.1-0.5,8.2-0.8,12.3-1.1
	c4.6-0.4,9.3-0.7,13.9-1c0.9-0.1,2-0.1,2.8,0.3c7.3,3.4,14.9,6.4,21.7,10.6c2.7,1.6,3.7,6,5.6,9.3c-1,0.4-1.4,0.6-1.8,0.7
	c-10,0.4-19.9,0.5-29.9,1.1c-5.3,0.3-10.7,1-15.8,2.4C675.3,269.2,663.4,265.5,659.5,258.8z"/>
<path id="Albano_di_Lucania" class="st0" d="M710.3,349.6c-2.1,6.3-2.9,13.1-7.7,19.4c-1.8-8.9-8.4-9.1-12.9-9.2
	c-5.1-4.2-8.7-7.7-12.7-10.4c-3.3-2.1-4.6-5-4.9-8.4c-0.6-6.7-0.8-13.4-1.1-20.1c0-0.7,0.2-1.3,0.3-2.8c7.8,7,16.1,10.9,26.6,7.7
	c7.9,11.3,17.7,20.6,29.5,27.8c-0.2,0.5-0.5,1.1-0.7,1.6c-2.8-0.4-5.7-0.4-8.3-1.3C715.6,353.1,713.2,351.2,710.3,349.6z"/>
<path id="Montemurro" class="st0" d="M661.9,516.8c-0.8-4.4-2.1-8.1-0.2-12.6c2.5-6.3,3.4-13.2,0.7-20.2c-2.6-6.7-1-8.6,6.3-8.8
	c3.5-0.1,7-1,10.3-0.7c4.1,0.4,8,1.7,11.3,2.5c-1.7,3.6-3.3,6.8-4.6,10.2c-0.4,0.9-0.4,2.9,0.2,3.2c3.1,1.9,2.7,5.1,3.4,8
	c1.4,5.7,3.1,11.4,4.7,17.1c0.5,1.9,0.9,3.8,1.4,6C683.6,521.9,672.8,519.8,661.9,516.8z"/>
<path id="Ruoti" class="st0" d="M555.2,260.3c0.2,1.4,0.8,2.9,0.7,4.3c-0.4,4.3-1.2,8.6-1.5,13c-0.1,1,1.1,2.6,2.1,3.1
	c3.8,1.9,7.9,3.2,11.6,5.3c4,2.2,5,9.2,2.4,13.1c-2.8,4.2-6.3,7.8-10.6,10.4c-1.5,0.9-3.7,0.6-5.6,0.7c-1.3,0-2.5-0.3-3.8-0.5
	c-0.1-0.1-0.1-0.1-0.2-0.2c-2-0.5-4.1-1.1-6.1-1.7c-0.1-0.1-0.2-0.1-0.3-0.2c-0.8-0.5-1.7-1.1-2.5-1.6c-0.1-0.1-0.2-0.2-0.3-0.3
	c-0.2-0.2-0.4-0.4-0.6-0.6c-0.1-0.1-0.2-0.2-0.3-0.3c-0.2-0.2-0.4-0.4-0.6-0.6c-0.1-0.1-0.2-0.2-0.3-0.3c-1.8-2.1-3.5-4.3-5.3-6.4
	c-0.6-0.9-1.2-1.9-1.8-2.8c-0.6-0.9-1.3-1.8-1.9-2.8c0.5-1.5,1.1-2.9,1.6-4.4c0.1-0.1,0.2-0.3,0.4-0.4c0.2-0.2,0.3-0.3,0.5-0.5
	c0.1-0.1,0.2-0.3,0.4-0.4c0.8-1.1,1.6-2.2,2.5-3.3c0.1-0.1,0.2-0.3,0.4-0.4c0.2-0.2,0.3-0.3,0.5-0.5c0.1-0.1,0.3-0.3,0.4-0.4
	c0.2-0.2,0.3-0.3,0.5-0.5c0.1-0.1,0.2-0.3,0.4-0.4c0.6-0.8,1.3-1.6,1.7-2.5c1.2-2.7,2.3-5.5,3.5-8.3c0.1-0.1,0.3-0.2,0.4-0.4
	c0.2-0.2,0.3-0.3,0.5-0.5c0.1-0.1,0.3-0.2,0.4-0.4c0.8-0.5,1.6-1,2.4-1.6c0.1-0.1,0.3-0.2,0.4-0.4c0.2-0.2,0.3-0.3,0.5-0.5
	c0.1-0.1,0.3-0.3,0.4-0.4c1.1-0.8,2.2-1.7,3.3-2.5c0.1-0.1,0.3-0.2,0.4-0.3c0.8-0.5,1.6-1,2.4-1.6c0.1-0.1,0.3-0.2,0.4-0.4
	c0.2-0.2,0.3-0.3,0.5-0.5C555.1,260.4,555.2,260.3,555.2,260.3z"/>
<path id="Guardia_Perticara" class="st0" d="M736.3,487.1c-0.3,0.5-0.7,0.9-1,1.5c-1.9,4.8-5.9,6.7-11.1,5.2
	c-0.6-0.2-1.4-0.1-2.1-0.2c-0.1-0.1-0.1-0.1-0.2-0.2c-1.5-0.5-2.9-1.1-4.4-1.6c-0.1-0.1-0.2-0.1-0.3-0.2c-2.4-1.1-4.9-2.3-7.3-3.4
	c-0.1-0.1-0.2-0.2-0.3-0.3c-0.2-0.2-0.4-0.4-0.6-0.6c-0.1-0.1-0.2-0.2-0.3-0.3c-0.6-0.8-1.1-1.6-1.7-2.5c-0.1-0.1-0.2-0.2-0.2-0.3
	c-0.7-0.6-1.2-1.3-2-1.7c-1.3-0.6-2.8-0.9-4.1-1.3c-0.2-0.9-0.3-1.6-0.5-2.2c0.1-0.1,0.1-0.2,0.1-0.3c0.9-2.4,2.2-4.7,2.6-7.1
	c0.8-5,3.6-8.1,8.2-10.3c4.5-2.2,8.7-4.7,12.9-7c2,1.3,3.7,2.4,5.4,3.5c0.1,0.1,0.2,0.1,0.3,0.2c0.2,0.2,0.4,0.3,0.5,0.5
	c0.1,0.1,0.3,0.3,0.4,0.4c0.2,0.2,0.4,0.3,0.5,0.5c0.1,0.1,0.3,0.3,0.4,0.4c0.2,0.2,0.4,0.3,0.5,0.5c0.1,0.1,0.3,0.3,0.4,0.4
	c0.2,0.2,0.4,0.3,0.5,0.5c0.1,0.1,0.3,0.3,0.4,0.4c0.2,0.2,0.4,0.3,0.5,0.5c0.1,0.1,0.2,0.2,0.4,0.4c0.5,0.5,1,1,1.6,1.5
	c0.1,0.1,0.2,0.2,0.3,0.3c0.3,0.4,0.4,0.8,0.8,1.1c2.6,2.1,4.6,4.5,5,8c0.1,1.5,1,2.9,1.5,4.3c0.1,0.1,0.2,0.3,0.2,0.4
	c0.1,1.8,0.2,3.7,0.4,5.9c-2.5,0.2-5.1,0.4-7.8,0.6c-0.1,1-0.1,1.7-0.2,2.3C736.5,487,736.3,487.1,736.3,487.1z"/>
<path id="Rionero_in_Vulture" class="st0" d="M550.9,166.9c-1.5,1.9-2.7,3.4-4.1,5.2c1.7,3.1,3.5,6.3,5.2,9.4
	c1.9,3.5,0.1,8.1-3.9,9.4c-1,0.3-2.2,0.4-3.4,0.6c-0.7-0.9-1.7-1.7-2-2.7c-1.5-4.2-4.8-5.9-8.9-6.8c-4.4-0.9-8.7-2.3-13.4-3.6
	c0.2-2.5,0.4-4.7,0.6-7.3c3.2-0.7,6.3-1.7,9.5-2.1c2.7-0.4,3.8-1.9,4.1-4.4c0.3-2.1,0.6-4.2,0.9-6.4c-3.6-1.6-6.6-1.5-9.9,0.3
	c-6.4,3.5-11.4,8.5-15.6,14.3c-1,1.4-2.3,2.6-3.6,4c-6.2-2.1-12.1-4.1-18.6-6.3c1.1-3.2,1.8-6.2,3-8.9c1.6-3.4,3.6-6.5,5.4-9.8
	c1.3-2.4,2.8-2.9,5.5-1.7c6,2.7,12.1,5.6,18.9,5.8c3.1,0.1,5.4-0.6,7.3-3c0.6-0.8,1.5-1.4,2.5-2.4
	C536.8,156.5,541.5,164.3,550.9,166.9z"/>
<path id="Pignola" class="st0" d="M620.3,355.7c-1.2,3-2,6.1-3.6,8.5c-1,1.5-3.4,3.2-5,3c-7.5-0.8-13.6,2-19.4,6.2
	c-0.2,0.2-0.6,0.2-1.4,0.5c-3.1-6.8-8.3-9.7-15.9-6.8c0.1-2,0.2-3.4,0.4-5.2c-3,0.9-5.4,1.6-8.4,2.5c0-2.9,0.3-5.5-0.1-8
	c-0.9-5.8,1.6-9.9,5.7-13.4c1.6-1.4,2.9-3.1,4.7-4.2c0.8-0.5,2.4,0.3,3.6,0.8c1.5,0.6,2.7,1.8,4.2,2.1c7.3,1.7,14.7,3.2,22.1,5
	c1.5,0.4,3.3,1.7,4,3c1.3,2.8,3,4.7,6.2,5C618.3,354.9,619.1,355.3,620.3,355.7z"/>
<path id="Vietri_di_Potenza" class="st0" d="M494.5,348.7c-3.3-0.8-5.3,0.8-6.6,3.6c-0.7,1.4-1.4,2.8-2.3,4
	c-1.8,2.4-5.2,2.2-6.1-0.3c-1.4-4.2-4.3-5.8-8.5-5.5c-0.5,0-0.9,0-1.4-0.1c-0.3,0-0.6-0.2-1.1-0.4c-0.2-3.1-2.4-3.4-4.9-3.3
	c-0.7,0-1.5-0.1-2-0.5c-2.5-2.3-4.8-4.7-7.8-7.6c1.4-2.7,3.2-6.1,5.2-9.9c6.9-0.5,13.8-1.2,20.7-1.5c3.2-0.1,6.4,0.6,9.7,0.8
	c0.8,0,1.7-0.5,2.5-0.8c0.1-0.1,0.2-0.2,0.3-0.3c0.4-0.2,0.9-0.4,1.3-0.6c0.2-0.1,0.4-0.3,0.5-0.4c1.7-0.6,3.4-1.2,5.2-1.8
	c0.1,0.1,0.3,0.2,0.4,0.3c0.2,0.2,0.3,0.3,0.5,0.5c0.2,0.1,0.3,0.3,0.4,0.4c0.8,0.5,1.6,1,2.4,1.5c0.1,0.1,0.3,0.2,0.4,0.3
	c0.5,0.5,1,1,1.6,1.6c0.1,0.1,0.2,0.3,0.3,0.4c0.2,0.5,0.4,0.9,0.6,1.4c0.1,0.2,0.2,0.3,0.3,0.5c0.4,1.7,0.9,3.4,1.4,5.5
	c0,0.1-0.2,0.8-0.4,1.5c-0.1,0.1-0.3,0.3-0.4,0.4c-0.8,1.1-1.6,2.2-2.5,3.3c-0.1,0.1-0.2,0.3-0.3,0.4c-0.8,1.1-1.6,2.2-2.5,3.3
	c-0.1,0.1-0.3,0.3-0.4,0.4c-0.2,0.2-0.3,0.3-0.5,0.5c-0.1,0.1-0.3,0.3-0.4,0.4c-1.7,0.5-3.4,1-5.1,1.5
	C494.8,348.6,494.7,348.7,494.5,348.7z"/>
<path id="Calciano" class="st0" d="M777.1,333.9c1,4,1.8,7.4,2.5,10.5c-5,4.4-7.4,10.8-5.7,16.5c-4.7,2.3-9.6,4.7-14.5,7.1
	c-4.4-6.2-9.8-2.7-14.7-2.5c-0.8,0-1.6,1.6-2.2,2.5c-1.2,2-2.2,4.1-3.3,6.1c-5.9-2.8-11.2-5.3-17-8c2.1-4.1,3.6-8.2,6.2-11.5
	c1.3-1.7,4.4-2.2,6.8-3c5.5-1.8,11-3.5,16.5-5.1c2.4-0.7,4-2,4-4.6c0-2.1,1.2-2.8,3.1-2.8c2.2,0,4.5-0.2,6.7,0
	c3.8,0.5,6.8-0.8,9.3-3.6C775.3,334.9,776,334.6,777.1,333.9z"/>
<path id="Carbone" class="st0" d="M721,582.9c0.5,3.5,0.8,6,1.2,8.7c3.6,0,7.2-1.6,10.7,1.8c-3.4,2.9-6.7,5.7-9.6,8.3
	c1.2,4.1,2.1,7.3,3,10.7c-1.9,0.5-3.3,1.1-4.7,1.2c-5.5,0.2-11.1,0.1-16.6,0.2c-3.7,0.1-4.8-3-6.8-5c-3.3-3.3-6.2-7-9.3-10.5
	c-2.7-3.1-3-7-2-10.3c0.9-2.9,3.9-4.9,7.6-5.3c4.8-0.5,9.5-2.2,14.2-2.3C712.9,580.5,717,582.1,721,582.9z"/>
<path id="Maschito" class="st0" d="M593.7,185.5c-0.8-0.5-1.5-1.2-2.3-1.5c-4.9-1.4-6.6-6-10.2-9.6c3.8-2.2,7.1-4,10.4-6
	c3.8-2.3,7.9-3.3,12.4-3c5.8,0.3,11.6,0.1,17.4,0c1.3,0,2.9-0.5,3.9-1.2c4.8-3.5,9.4-7.3,14.7-11.4c4,3.4,8.1,6.7,12.5,10.5
	c-3.5,3.7-6.4,7.4-10.1,10.3c-1.5,1.2-4.4,0.4-6.7,0.5c0,0-0.1-0.1-0.1-0.1c-2.5,0-4.9,0-7.4,0c-0.1,0-0.2,0.1-0.2,0.1
	c-0.6,0.3-1.1,0.5-1.7,0.8c-0.1,0.1-0.1,0.1-0.2,0.2c-1.5,0.9-3,1.8-4.6,2.7c-0.1,0-0.1,0.1-0.2,0.1c-1.5,0.9-3,1.8-4.6,2.7
	c-0.1,0-0.1,0.1-0.2,0.1c-0.6,0.3-1.1,0.5-1.7,0.8c-0.1,0-0.1,0.1-0.2,0.1c-0.6,0.3-1.1,0.5-1.7,0.8c-0.1,0-0.1,0.1-0.2,0.1
	c-2.1,0.9-4.3,1.8-6.4,2.7c-0.1,0-0.1,0.1-0.2,0.1c-2.5,0.6-4.9,1.3-7.4,1.9c-0.1,0-0.2-0.1-0.2-0.1c-1.5-0.6-3-1.2-4.5-1.8
	L593.7,185.5z"/>
<path id="Castronuovo_di_Sant_x27_Andrea" class="st0" d="M759.3,589.9c-1-5.4-5.9-9.5-11.2-9.4c-7.1,0.2-14.2,0.6-21.4,0.9
	c-0.8,0-1.6-0.1-2.6-0.2c2.9-6.3,9.8-9.5,10.7-16.8c0.8-6.5,2.2-13,3.5-20.3c10.4,7.9,20.6,15.7,31.2,23.8c-5,7.7-2.2,15.3-1.1,22.6
	C765.9,593,763.1,592.8,759.3,589.9z"/>
<path id="Nova_Siri" class="st0" d="M947.4,590.1c3.3,5.7,1.9,9.1-5.1,12.3c-1.4-1-3.2-2.1-4.8-3.4c-2.5-1.9-5-3.2-8.3-1.6
	c-1.2,0.6-3,0.4-4.3-0.1c-3.7-1.5-7.1-1.5-10.6,0.8c-1.3,0.8-3.4,0.3-5.2,0.4c-0.1-0.4-0.2-0.8-0.3-1.1c-4.3,2-8.6,4-13.2,6.2
	c-1.8-5.8-7.1-5.1-11.4-6c-3-0.7-6-1.2-7.3-5c3.6-2.4,7.2-4.7,10.8-7.1c3.1-2,6.1-4,9.3-5.8c0.8-0.5,1.9-0.9,2.8-0.8
	c7.1,0.8,14.2,1.5,21.2,2.9c2.7,0.5,5.5,2.2,7.7,4c3.5,3,7.4,3.7,11.7,3.8C942.7,589.7,945.1,590,947.4,590.1z"/>
<path id="Sasso_di_Castalda" class="st0" d="M540.9,389.4c5.1-0.7,10.1-1.4,15.2-2.2c2-0.3,3.9-1,5.9-1.3c0.6-0.1,1.5,0.2,1.9,0.7
	c3.2,4.5,6.3,9,9.4,13.5c0.2,0.2,0.2,0.6,0.3,0.9c-1.2,1.9-2.3,3.8-3.5,5.6c-0.1,0.1-0.2,0.1-0.3,0.2c-0.2,0.2-0.4,0.4-0.6,0.6
	c-0.1,0.1-0.2,0.2-0.3,0.3c-1.5,1.2-2.9,2.4-4.4,3.6c-0.1,0.1-0.2,0.2-0.3,0.3c-0.2,0.2-0.4,0.4-0.6,0.6c-0.1,0.1-0.2,0.3-0.4,0.4
	c-0.2,0.2-0.4,0.4-0.6,0.6c-0.1,0.1-0.2,0.2-0.3,0.3c-1.2,0.9-2.3,1.8-3.5,2.6c-0.1,0.1-0.2,0.2-0.3,0.3c-0.2,0.2-0.4,0.4-0.6,0.6
	c-0.1,0.1-0.2,0.2-0.3,0.3c-0.8,0.6-1.7,1.1-2.5,1.7c-0.1,0.1-0.2,0.2-0.3,0.2c-0.8,0.6-1.7,1.1-2.5,1.7c-0.1,0.1-0.2,0.2-0.3,0.3
	c-0.2,0.2-0.4,0.4-0.6,0.6c-0.1,0.1-0.2,0.2-0.3,0.3c-0.8,0.6-1.7,1.1-2.5,1.7c-0.1,0.1-0.2,0.2-0.3,0.2c-0.8,0.6-1.7,1.1-2.5,1.7
	c-0.1,0.1-0.2,0.2-0.3,0.2c-0.8,0.6-1.7,1.1-2.5,1.7c-0.1,0-0.1,0.1-0.2,0.1c-1.3-3.4-2.6-6.8-3.9-10.2c0.1-0.2,0.2-0.4,0.3-0.6
	c0-1.1,0-2.1,0-3.2c-0.1-0.2-0.2-0.4-0.3-0.6c-0.8-3-1.7-6-2.5-8.9c-0.1-0.2-0.2-0.4-0.3-0.6c-0.7-3-1.3-5.9-2.1-8.9
	c-0.9-3.1-0.3-4,2.9-4.2c1.3-0.1,2.6-0.5,3.9-0.8C540.7,389.5,540.8,389.5,540.9,389.4z"/>
<path id="Francavilla_sul_Sinni" class="st0" d="M779.8,625.9c2,1,3.1,5.2,2.4,8.1c-1.9,8.2-3.7,16.3-5.4,24.5
	c-0.4,2-0.5,4.2-0.8,6.3c-0.1,0.1-0.1,0.1-0.2,0.2c-1.4,1.1-2.9,2.3-4.3,3.4c-0.1,0.1-0.3,0.2-0.4,0.3c-1.5,0.5-3,1-4.6,1.5
	c-0.8-2.9-1.7-5.6-2.5-8.4c-0.9-4.4-1.9-8.9-2.8-13.3c-0.3-1.3-0.7-2.5-1-3.8c-0.3-1.3-0.6-2.6-0.9-3.8c-0.3-1.3-0.7-2.5-1-3.8
	c-0.1-1-0.2-1.9-0.3-2.9c-0.4-0.3-0.8-0.6-1.2-0.9c-0.2,0.6-0.3,1.2-0.5,1.9c-0.9-0.3-1.8-0.7-2.7-1c-0.3-0.3-0.6-0.6-0.9-0.9
	c-0.6-1-1.2-1.9-1.9-2.9c-0.3-0.3-0.6-0.6-0.9-0.9c0.3-0.9,0.5-1.8,0.9-2.6c0.9-1.6,1.8-3.2,2.8-4.8c0.8-0.9,1.7-1.9,2.5-2.8
	c0.1-0.1,0.3-0.2,0.4-0.3c0.2-0.2,0.3-0.4,0.5-0.5c0.1-0.1,0.2-0.2,0.3-0.3c3.9,0,7.8,0,11.7,0c0.1,0.1,0.2,0.2,0.4,0.3
	c0.2,0.2,0.4,0.4,0.6,0.6c0.1,0.1,0.2,0.2,0.3,0.4c0.2,0.2,0.4,0.4,0.6,0.6c0.1,0.1,0.2,0.2,0.3,0.4c0.2,0.2,0.4,0.4,0.6,0.6
	c0.1,0.1,0.2,0.2,0.3,0.4c0.2,0.2,0.4,0.4,0.6,0.6c0.1,0.1,0.2,0.2,0.3,0.3c1.3,1.4,2.5,2.9,4,4.1c0.4,0.3,1.5-0.2,2.2-0.3
	C779.6,626,779.7,626,779.8,625.9z"/>
<path id="Cancellara" class="st0" d="M668,267.6c-4.2,11.5-11.2,19.8-21.1,25.9c-6.7-1.5-13.3-3-20.2-4.5c0.1-1.2,0-2.2,0.2-3.2
	c1-5.1,2-10.3,3.3-15.3c0.4-1.5,1.6-3.3,2.9-4c4.3-2.4,8.6-5.2,13.3-6.1c5-1,10.6-2.1,15.2,2.1C663.7,264.3,665.9,265.9,668,267.6z"
	/>
<path id="Vaglio_Basilicata" class="st0" d="M653.5,321.6c-0.1,0-0.2,0-0.2-0.1c-2.9-5.2-7.8-4.7-12.7-4.5c-5.8,0.2-9.4-4-13.7-6.8
	c-0.7-0.5-1-2.7-0.6-3.7c1.8-4.8-0.2-9.4-0.7-14c-0.1-0.7-0.2-1.3-0.4-2.6c4,0.8,7.5,1.6,11,2.3c2.4,0.5,4.9,0.8,7.2,1.7
	c3.2,1.2,5.5,0,7.7-2c0.6-0.5,1.3-0.9,2.1-1.4c3,1.9,6,3.7,8.8,5.6c0.6,0.4,1,1.3,1.1,2c0.3,3.3-0.1,6.8,0.8,9.8
	c1,3.1,3.3,5.7,5,8.5C663.9,318.1,658.8,319.8,653.5,321.6z"/>
<path id="Balvano" class="st0" d="M492.2,326.4c-10.6-0.7-21.1-2-31.5,0.9c-0.9-2.7,0.7-3.2,2.1-4c3.3-1.9,6.8-3.5,9.5-6
	c1.9-1.7,2.7-4.7,4.3-7.9c-2.6-0.7-4.3-1.2-6.8-1.9c-0.1-0.2-0.8-1.2-1.3-2c0.3-0.8,0.5-1.4,0.7-2.1c0.1-0.1,0.3-0.1,0.4-0.2
	c0.8-0.5,1.5-1,2.3-1.5c0.2-0.1,0.3-0.2,0.5-0.4c0.4-0.2,0.9-0.4,1.3-0.6c0.2-0.1,0.3-0.2,0.5-0.3c0.8-0.5,1.5-1,2.3-1.5
	c0.2-0.1,0.3-0.2,0.5-0.4c1.4-0.8,2.7-1.6,4.1-2.4c0.2-0.1,0.3-0.2,0.5-0.4c1.7-0.7,3.4-1.5,5.1-2.1c1.4-0.5,2.9-0.8,4.3-1.2
	c0.2-0.1,0.3-0.2,0.5-0.3c1.5,0.6,3,1.3,4.4,1.9c1.3,1.1,2.7,2,4,3.2c1,0.9,1.7,2,2.6,3c-0.1,0.1-0.2,0.2-0.2,0.3
	c-1.4,2.3-2.9,4.6-4.3,7c-0.1,0.1-0.2,0.3-0.3,0.4c-1.4,1.1-1.4,7.5,0,9.6c0.1,0.2,0.2,0.3,0.3,0.5c0,2.7-0.3,5.2-3.3,6.3
	c-0.1,0-0.2,0.4-0.2,0.6c-0.2,0.1-0.4,0.2-0.5,0.4c-0.4,0.2-0.9,0.4-1.3,0.6C492.4,326.2,492.3,326.3,492.2,326.4z"/>
<path id="Paterno" class="st0" d="M599.8,476.6c-12.5,5-24.2,9.8-35.6,14.4c-2.2-2.7-5-4.6-5.5-7c-0.8-3.8-0.2-7.9,0-11.8
	c0.1-1.9,1.3-3.8,1-5.5c-0.4-2.1-2-3.9-2.6-5c-3-1.9-5.4-3.3-8.2-5c5.1-2.5,9.4-2.8,13.5-0.3c2.9,1.7,5.9,1.9,8.9,1.1
	c2.4-0.6,3.7,0.4,5,2.2c3.3,4.5,6.7,8.8,10,13.3c0.5,0.7,1,1.4,1.6,2.3c2.5-1.6,4.5-2.8,6.9-4.4
	C596.2,472.5,597.7,474.3,599.8,476.6z"/>
<path id="San_Costantino_Albanese" class="st0" d="M790.5,668.6c-1.8-2.3-3.4-4.2-4.9-6.1c-1-1.3-1.9-2.7-3-4
	c-2.4-2.7-3.3-5.5-2.1-9.3c1.4-4.2,1.9-8.7,3.1-13c0.3-1.1,1.8-2.8,2.5-2.7c4.6,0.5,7.8-0.9,9.8-5.2c0.1-0.2,0.5-0.4,1-0.7
	c2.9,2.2,5.9,4.4,8.9,6.6c0.4,0.3,0.8,0.7,1.3,1c5.8,3.7,5.4,3.7,3.7,10.2c-0.9,3.6-1.9,7.2-2.8,10.8c-0.2,0.6-0.4,1.3-0.9,1.6
	C801.7,661.4,796.4,664.9,790.5,668.6z"/>
<path id="Rotonda" class="st0" d="M725.4,716.4c0.6,1.2,1.1,2.3,1.7,3.4c-0.6,0.4-0.7,0.5-0.8,0.5c-5.9-2.8-10.5,1.5-15.7,2.6
	c-4,0.9-8.1,0.8-12.3,1.1c-0.5-1.6-1-2.7-1-3.9c-0.2-3-2.3-4.4-4.4-6c-1.7-1.3-3.3-2.8-4.8-4.3c-0.4-0.4-0.8-1.3-0.6-1.7
	c1.3-2.7,0-4.3-2-5.8c-0.4-0.3-0.9-0.9-0.9-1.3c-0.1-3.9,0-7.8,0-10.9c2.2-2,3.8-3.4,5.8-5.2c2.5,1.4,5.3,3.1,8.2,4.6
	c0.9,0.5,1.9,0.6,2.9,0.9c0.1,0.1,0.2,0.2,0.3,0.3c1.4,2.7,2.9,5.4,4.3,8.1c0.1,0.2,0.3,0.4,0.4,0.6c0.8,0.8,1.6,1.6,2.4,2.4
	c0.2,0.2,0.4,0.4,0.6,0.5c0.4,0.4,0.9,0.9,1.3,1.3c0.2,0.2,0.4,0.3,0.6,0.5c1.7,1.4,3.4,2.9,5.1,4.3c0.2,0.2,0.4,0.3,0.6,0.5
	c0.5,0.5,0.9,0.9,1.4,1.4c0.2,0.2,0.4,0.3,0.6,0.5c1.4,1.1,2.8,2.3,4.2,3.4c0.2,0.1,0.3,0.3,0.5,0.4c0.2,0.2,0.3,0.3,0.5,0.5
	c0.2,0.2,0.3,0.3,0.5,0.5c0.2,0.2,0.3,0.3,0.5,0.5C725.1,716.2,725.2,716.3,725.4,716.4z"/>
<path id="Marsicovetere" class="st0" d="M612.2,481.1c-0.3,0.6-0.9,1.2-0.8,1.8c0.9,5.1-3.1,6.7-6.3,9.8c-1.7-2.9-3.1-5.5-4.6-7.9
	c0.7-2.5,1.4-4.8,1.8-6.2c-1.6-2-3-3.4-4.1-5.1c-1.3-2.1-2.4-4.4-3.5-6.6c0-0.1-0.1-0.2-0.1-0.3c-0.3-7.8-0.6-15.7-0.9-23.5
	c0.1-0.1,0.1-0.2,0.2-0.3c0.3-0.5,0.5-1.1,0.8-1.6c0-0.1,0.1-0.1,0.1-0.2c0.6-0.3,1.3-0.5,2.4-0.9c7.4,7.2,18.2,10.5,23.3,20.8
	c-0.3,1.1-0.5,2.1-0.7,3.1c-0.1,0.1-0.1,0.1-0.2,0.2c-0.5,0.8-1.1,1.7-1.6,2.5c-0.1,0.1-0.2,0.2-0.2,0.3c-0.5,0.8-1.1,1.7-1.6,2.5
	c-0.1,0.1-0.2,0.2-0.2,0.3c-0.5,0.8-1.1,1.7-1.6,2.5c-0.1,0.1-0.2,0.2-0.2,0.3c-3,2.2-1.4,5.4-1.6,8.2
	C612.3,480.8,612.2,481,612.2,481.1z"/>
<path id="Spinoso" class="st0" d="M680.6,523c-1.4,1.5-2.3,3.2-3.7,3.9c-2.4,1.2-3.7,2.6-3.8,5.4c-0.1,2.7-0.6,5.4-0.6,8
	c0,3.9-0.9,7.5-3.4,10.6c-1.3,1.8-2.7,2.8-4.9,3.6c-3.2,1.1-6,3.5-8.9,5.3c-2.3,1.5-4,1-4.5-1.7c-1-5.4-1.7-10.8-2.5-16.2
	c-0.1-0.7,0.1-1.5,0.4-2.1c3.9-6.8,7.8-13.6,11.8-20.3c0.4-0.7,1.8-1.4,2.6-1.2c5.3,1.1,10.6,2.4,15.9,3.7
	C679.1,522.1,679.3,522.2,680.6,523z"/>
<path id="Tramutola" class="st0" d="M567.5,497.9c0.4-1.5,0.7-2.9,1-4.2c-1.1-0.6-1.8-1-3.3-1.8c12.2-5,23.8-9.7,36-14.6
	c-0.1,1.4,0.1,2.1-0.2,2.5c-2.2,3.7-0.8,6.9,1.5,9.8c2.4,3,1.5,5.4-0.7,7.8c-2.5,2.6-4,5.4-3.9,9.3c0.1,3.1-0.9,6.2-1.5,10.3
	c-0.8-1.4-1.4-2-1.5-2.7c-0.1-3-2.3-3.5-4.6-4.4c-6.3-2.4-12.7-4.9-18.9-7.7C569.9,501.5,568.9,499.4,567.5,497.9z"/>
<path id="Garaguso" class="st0" d="M782.4,350.6c4.3,12.7,8.5,24.9,12.8,37.5c-3.6,2.1-7.8,1.5-11.9,0.8c-1.9-0.3-3.8-0.8-5.4-1.7
	c-2.5-1.3-5.1-2.6-6.9-4.6c-3.8-4.2-7-8.9-10.7-13.8c5.2-2.7,10.1-5.1,15.4-7.8c-3.9-5.9,0.8-9.7,2.8-15c3.6,0.8,7.1,1.5,10.5,2.2
	c0,0.2,0,0.4,0,0.5C786.6,349.6,784.4,350.1,782.4,350.6z"/>
<path id="Trecchina" class="st0" d="M602.4,664.9c0.8,2.9-0.8,4.6-2.7,6.6c-2.6,2.8-4.4,6.4-6.6,9.6c-0.4,0.6-1,1.2-1.5,1.9
	c-1.2-5.5-2.3-10.7-3.4-16.2c-2.6,0.6-4.5,1.3-6.4,1.4c-1.1,0.1-2.9-0.4-3.4-1.2c-4.3-6.8-8.4-13.7-12.6-20.6
	c-0.2-0.3-0.2-0.6-0.3-0.9c1.1-0.6,2.2-1.1,3.3-1.6c0.1-0.1,0.2-0.1,0.4-0.2c1.1-0.2,2.2-0.5,3.4-0.7c0.2-0.1,0.3-0.2,0.5-0.3
	c1.7,0,3.5,0,5.2,0c0.2,0.1,0.3,0.2,0.5,0.3c1.1,0.2,2.2,0.5,3.3,0.7c0.2,0.1,0.3,0.2,0.5,0.3c1.1,0,2.2,0,3.3,0
	c0.1-0.1,0.3-0.2,0.4-0.3c0.8-0.5,1.7-1.1,2.5-1.6c0.1-0.1,0.1-0.1,0.2-0.2c0.9,0.3,1.7,0.6,2.6,0.8c0.1,0.1,0.3,0.2,0.4,0.3
	c1.5,1.2,3,2.4,4.5,3.5c0.1,0.1,0.2,0.2,0.2,0.4c0.2,1.1,0.5,2.2,0.7,3.4c0.1,0.2,0.2,0.3,0.3,0.5c0.2,1.1,0.5,2.2,0.7,3.4
	c0.1,0.1,0.2,0.3,0.3,0.4c0.2,1.1,0.5,2.2,0.7,3.4c0.1,0.2,0.2,0.3,0.3,0.4c0.2,0.8,0.5,1.6,0.7,2.4c0.1,0.1,0.2,0.3,0.2,0.4
	c0.2,0.5,0.5,1,0.7,1.5c0.1,0.1,0.2,0.3,0.2,0.4c0.2,0.5,0.5,1,0.7,1.5C602.3,664.7,602.3,664.8,602.4,664.9z"/>
<path id="Castelgrande" class="st0" d="M465.6,234c-1.5,0.8-3.1,1.4-4.2,2.4c-1.4,1.3-2.8,2.8-3.5,4.5c-0.9,2.1-1.1,4.5-1.4,6.7
	c-0.3,2.1-1.4,3-3.5,3.2c-3.3,0.3-6.6,0.6-9.9,0.9c-0.5,0.1-1.2,0.1-1.6,0.4c-3,2.7-6.3,1.2-9.6,1.2c-5.8,0.1-6.3-3.2-6.2-7.9
	c0-1,0.4-2,0.7-3c0.4-1.7,0.9-3.4,1.3-5.2c-0.2-0.3-0.5-0.6-0.7-0.9c3.6-1.6,7-4,10.8-4.8c7.9-1.7,15-4.4,20.3-10.7
	c0.3-0.3,0.7-0.5,0.7-0.4c0.8,2.4,1.3,4.8,2.3,6.9C462.3,229.6,463.9,231.6,465.6,234z"/>
<path id="San_Giorgio_Lucano" class="st0" d="M842,636.3c-6.1-1.5-6.3-6.4-6.5-11.9c-2.3,1.5-4,2.7-5.7,3.8c-0.3-0.2-0.7-0.3-1-0.5
	c1.1-3,2.2-6,3.6-9.6c-2.2,0.1-4,0.3-6.3,0.4c2.3-3.3,4.3-6.2,6.6-9.5c-2.8-1.5-5.1-2.8-7.3-4c-0.3-1.4-0.7-2.7-1.1-4.4
	c3.5-3.8,7.1-8.1,11.2-12c2.1-2,5-3.4,8.2-1c1.5,1.2,3.3,1.9,4.8,3c0.7,0.5,1.4,1.9,1.2,2.5c-1,2.8-2.3,5.4-3.5,8.2
	c-0.4,0.9-0.8,2-0.6,2.9c1.9,8.7,1.3,17.3-1.9,25.6C843,631.9,842.6,634.1,842,636.3z"/>
<path id="Gorgoglione" class="st0" d="M730.1,457.3c-3.7-3.2-5.5-7.4-5.6-12.3c0-2.1-0.6-5.6,0.3-6c2-1,4.7-0.6,7.1-0.6
	c0.6,0,1.2,0.2,1.8,0.4c0.1,0,0.2,0.1,0.2,0.1c0.5,0.2,1,0.5,1.5,0.7c0.1,0.1,0.2,0.1,0.3,0.2c0.5,0.2,1,0.5,1.5,0.7
	c0.1,0.1,0.2,0.1,0.3,0.2c0.5,0.6,1.1,1.1,1.6,1.7c0.1,0.1,0.1,0.2,0.2,0.3c0.5,3.3,1.1,6.6,1.6,9.9c0.1,0.1,0.1,0.2,0.2,0.3
	c-0.5,2.4,0.3,4.1,2.7,4.9c8.3,2.4,11.4,10,15.7,16.3c1.5,2.1,2.8,4.3,4.7,7.1c-3.3,0.8-6.2,1.5-9.1,2.2c-0.7,0.2-1.3,0.6-1.9,0.9
	c-0.1,0-0.2,0.1-0.3,0.1c-2.2,0-4.4,0-6.6,0c-0.9-2.5-1.6-4.4-2.3-6.4c-0.1-0.1-0.2-0.3-0.2-0.4c-0.6-3-0.6-6.2-1.9-8.8
	c-0.9-2-3.4-3.2-5.2-4.8c-0.1-0.1-0.2-0.2-0.3-0.3c-0.5-0.5-1-1-1.5-1.5c-0.1-0.1-0.2-0.2-0.4-0.4c-0.2-0.2-0.4-0.4-0.5-0.5
	c-0.1-0.1-0.3-0.3-0.4-0.4c-0.2-0.2-0.4-0.4-0.5-0.5c-0.1-0.1-0.3-0.3-0.4-0.4c-0.2-0.2-0.4-0.4-0.5-0.5c-0.1-0.1-0.3-0.3-0.4-0.4
	c-0.2-0.2-0.4-0.4-0.5-0.5c-0.1-0.1-0.3-0.3-0.4-0.4c-0.2-0.2-0.4-0.4-0.5-0.5C730.4,457.4,730.2,457.3,730.1,457.3z"/>
<path id="Castelmezzano" class="st0" d="M678.4,395.2c0.1-1.6,0.1-1.6-6.6-8.9c5.2-8.3,10.5-16.7,16.1-25.5c3,0.4,6.1,0.9,9.4,1.4
	c0.1,1.1,0.4,2.1,0.1,2.8c-1.6,3.6-0.2,6.7,1.3,10c0.7,1.6,1,3.7,0.6,5.4c-1,4.2-1.7,8.7-3.9,12.4c-3,5.1-6.5,10.4-13.6,11.9
	c-0.7-2.5-1.4-4.9-2.2-7.2c-0.2-0.7-0.6-1.3-1-2C678.5,395.3,678.5,395.2,678.4,395.2z"/>
<path id="Ripacandida" class="st0" d="M579.3,205.5c-6.2-2.7-11.9-4.3-14-10.5c-1.4-4-4.2-6.5-7.7-8.6c-1.3-0.8-2.5-2.2-3.3-3.5
	c-2.1-3.4-4-7-6-10.3c3.2-5.9,4.9-6.7,11-5.2c4.1,1,8.2,1.9,12.2,3c0.9,0.3,2,1.3,2.4,2.2c2.8,7.1,6,14.2,7.9,21.6
	C582.4,197.4,580.2,201.3,579.3,205.5z"/>
<path id="Oliveto_Lucano" class="st0" d="M749.2,394.8c-0.7-2.2-1.1-4.4-2.1-6.4c-1.8-3.5-3.9-6.9-5.8-10.4
	c-0.4-0.7-0.7-1.4-0.8-2.2c-0.4-4.6,4.4-9.7,8.9-10.2c4.9-0.6,8.3,0.9,11.1,5.2c3.4,5.3,7.7,10,11.7,15.1c-1.4,0.8-2.6,1.4-3.9,2.1
	c-0.1,2.2-0.3,4.3-0.4,6.2c-11.1,9.3-12,7.8-19.6,1.1C748.6,395.2,748.9,395,749.2,394.8z"/>
<path id="Satriano_di_Lucania" class="st0" d="M513.7,378.1c0.6-2.9,1.7-5.8,1.8-8.7c0.1-3.5-0.5-7.1-0.8-10.6
	c-0.1-1.1-0.3-2.1-0.6-4.1c1.9,1.4,3.2,2.4,4.6,3.3c4,2.4,8,4.9,12.2,6.9c3.6,1.7,6.4,3.9,8.6,7.1c1.9,2.8,4.5,5.3,5.8,8.3
	c0.9,2.2,0.2,5.1,0.2,7.4c-2.1,0.8-3.5,1.3-4.9,1.8c-0.1,0.1-0.2,0.1-0.4,0.2c-2.7,0-5.5,0-8.2,0c0,0.1,0,0.3,0,0.4
	c-1.9-0.4-3.8-0.9-5.7-1.3c-0.2-0.1-0.4-0.2-0.5-0.3c-2-0.8-4.1-1.7-6.2-2.5c-0.2-0.1-0.4-0.2-0.5-0.3c-2.6-1.3-5.1-2.6-7.4-3.8
	c0.6-0.8,1-1.5,1.5-2.1c0.1-0.1,0.1-0.3,0.2-0.4c0.1-0.3,0.2-0.6,0.3-0.9L513.7,378.1z"/>
<path id="Sarconi" class="st0" d="M645.2,571.5c-0.9-0.7-2.2-1.1-2.7-2c-2.7-5.7-5-11.6-7.9-17.2c-1.9-3.6-4.5-6.8-7.1-10.6
	c0.8-3.9,1.7-8.6,2.6-13.2c7.2-0.8,14-1.7,20.9-2.4c0.6-0.1,1.4,0.9,2.1,1.5c-1.4,6.1-7.5,10.7-5.8,17.3c1.4,5.8,0.2,12.3,4.4,17.5
	c-0.2,0.7-0.4,1.5-0.7,2.3c-0.1,0.1-0.2,0.1-0.2,0.2c-0.2,0.2-0.4,0.4-0.6,0.6c-0.1,0.1-0.2,0.2-0.3,0.3c-1.2,1.5-2.4,3-3.6,4.5
	c-0.1,0.1-0.2,0.2-0.3,0.3c-0.2,0.2-0.4,0.4-0.6,0.6C645.3,571.4,645.2,571.5,645.2,571.5z"/>
<path id="Savoia_di_Lucania" class="st0" d="M499.3,365.7c-1.6,0.3-3.2,0.7-5.4,1.2c-2.2-2.8-4.6-5.9-7.2-9.1c1.7-2.7,3-5.3,4.7-7.4
	c0.9-1,2.7-1.2,4-1.8c0.1-0.1,0.3-0.1,0.4-0.2c1.9-0.2,4.3,1.6,5.3-1.5c0.1-0.1,0.3-0.3,0.4-0.4c0.2-0.2,0.3-0.3,0.5-0.5
	c0.1-0.2,0.3-0.3,0.4-0.5c0.8-1.1,1.7-2.2,2.5-3.4c0.1-0.1,0.2-0.3,0.3-0.4c0.8-1.1,1.7-2.2,2.5-3.4c0.1-0.2,0.3-0.3,0.4-0.5
	c5.1-3.6,11.2-2.4,16.5-3.7c1,0.9,1.6,1.3,2.2,1.8c0.1,0.1,0.1,0.2,0.2,0.3c0.2,0.5,0.5,1.1,0.7,1.6c0.1,0.1,0.1,0.1,0.2,0.2
	c0,0.9,0,1.7,0,3.1c-3.2,2.6-6.7,5.4-10.2,8.3c-1.3,1-2.8,1.9-3.8,3.2c-0.7,1-1,2.6-1,4c0,2.5,0.4,4.9,0.7,8
	c-1.8-0.8-2.8-1.3-3.9-1.7c-0.1-0.1-0.2-0.1-0.3-0.2c-2.5-2.6-4.3-0.2-6.2,1c-0.2,0.1-0.3,0.2-0.5,0.3c-0.5,0.2-0.9,0.4-1.4,0.6
	c-0.2,0.1-0.3,0.2-0.5,0.3c-0.5,0.2-0.9,0.4-1.4,0.6C499.5,365.6,499.4,365.6,499.3,365.7z"/>
<path id="Ruvo_del_Monte" class="st0" d="M481.2,215.8c1.6-4.3,2.9-7.8,4.4-11.6c-6.4-5.3-12.9-10.7-14.2-20.6
	c4.1-1.5,8.6-3.2,13.2-4.9c0.3-1.2,0.8-2.7,1.2-4.1c0.3,0,0.6,0,0.8-0.1c0.7,1.8,1.4,3.6,2.1,5.3c1.7,3.9,3.7,7.7,5.1,11.7
	c0.7,2,0.6,4.2,1.1,7.3c2.5,1.5,5.8,3.5,9.2,5.5c2.8-2.7,5.3-5.1,8-7.8c1.9,4.3,0,7.8-3.6,8.4c-2.7,0.5-5.7,0.6-6.4,5
	C495.6,211.8,488.8,213.7,481.2,215.8z"/>
<path id="Valsinni" class="st0" d="M843,579.1c2.3,0.2,4.6,0.3,6.8,0.5c0.1,0.3,0.3,0.7,0.4,1c7.6-5.8,15.2-11.6,23.9-18.1
	c-0.5,9.4-1,18.1-1.6,27.9c2.6,2.5,5.9,5.7,9.4,9c0,0-0.8,0.4-1.3,0.2c-2.2-0.8-4.3-2-6.5-2.7c-2.2-0.7-4.6-1.3-6.9-1.3
	c-3,0-6.1,0.6-9.1,0.9c-0.2-0.1-0.4-0.1-0.5-0.2c-3.2-5.8-9.8-6.6-14.7-10C839.8,584.1,842.4,581.8,843,579.1z"/>
<path id="Castelluccio_Superiore" class="st0" d="M663,671.8c-4.6-1.8-8.8-3.5-13.7-5.4c-0.2-1.3-0.6-3.2-0.7-5
	c-0.1-1.2,0.3-2.5-0.1-3.5c-2-6.3,2.2-8.7,6.6-11.1c2.9-1.6,5.7-3.4,8.5-5.2c2.3-1.5,4.5-2.2,7.3-1c3.8,1.7,7.9,2.9,11.9,4.4
	C674.3,652.9,668.3,661.9,663,671.8z"/>
<path id="Rapone" class="st0" d="M460.4,223.5c0.7-3.6,1.8-6.6,1.7-9.6c0-4.9-0.9-9.9-1.2-14.8c-0.2-3.6,0-7.3,0-10.7
	c3.1-1.7,5.6-2.9,8.8-4.6c2.1,9,7.5,15.3,14.3,20c-1.5,8.6-5.4,14.9-11.9,19.6c-0.5,0.4-1.2,0.6-1.7,0.6
	C467.1,223.9,463.9,223.7,460.4,223.5z"/>
<path id="Castelluccio_Inferiore" class="st0" d="M691.8,670.7c-0.6,0.2-1.2,0.4-1.8,0.7c-2.8-0.9-5.7-1.8-9-2.8
	c-1.6,4.9-5,7.7-10.1,7.3c-2.2-1.5-4.1-2.7-6.5-4.2c1.1-2.2,2.2-4.8,3.7-7c3.3-4.8,6.7-9.4,10.2-14c2.9-3.7,6.3-4.5,11-3.3
	c2.7,0.7,5.6,0.8,8.4,1.4c1.1,0.2,2,0.8,3.3,1.4c-2.3,4.8-4.3,9.1-6.3,13.5c-0.4,1-0.6,2.1-0.9,3.1c-0.1,0.1-0.2,0.2-0.3,0.3
	c-0.2,0.5-0.4,0.9-0.6,1.4c-0.1,0.2-0.2,0.3-0.3,0.5c-0.2,0.5-0.4,0.9-0.6,1.4C692,670.4,691.9,670.5,691.8,670.7z"/>
<path id="Rapolla" class="st0" d="M570.3,117.3c0.6,2,1.4,3.6,1.5,5.2c0.2,5.6,0,11.3,0,16.9c0,4.2-3.2,7.5-7.1,6
	c-7-2.7-12.6,0.7-18.6,2.6c-3.6,1.1-7.1,2.7-10.7,3.8c-0.9,0.3-2.1-0.2-4-0.5c6.5-6.9,11.2-14.2,19.6-17.4c3.9-1.5,6-4.3,7.2-7.9
	C560,120.3,565,119.4,570.3,117.3z"/>
<path id="San_Paolo_Albanese" class="st0" d="M835.7,667.1c-2.9,4.9-5.5,9.3-8.1,13.7c-9.6-4.2-15-12-18.5-21.4
	c-0.5-1.2-0.2-2.8,0.2-4.2c1.2-4.8,2.3-9.6,3.9-14.2c1.4-4,5.1-6.3,8.8-7.3c2.9-0.9,3.3,2.7,4.8,4.8c-2.2,0.7-4.1,1.3-6.4,2
	c0.4,2.3,0.7,4.4,1.3,6.5c1.1,4.5,2.2,9.1,3.6,13.5c0.4,1.3,1.7,2.5,2.9,3.2C830.3,664.9,832.6,665.8,835.7,667.1z"/>
<path id="Trivigno" class="st0" d="M672.6,347.5c4.1,3.1,8.1,5.7,11.6,8.9c1.2,1.1,2.1,4.1,1.5,5.2c-3.6,6.4-7.7,12.5-11.7,18.7
	c-0.1,0.2-0.5,0.3-1.2,0.7c-6.1-7.3-12.3-14.7-18.8-22.5C660.4,354.6,666.4,351.1,672.6,347.5z"/>
<path id="Episcopia" class="st0" d="M708.9,641.4c-1.6-2.7-3.2-5.5-4.9-8.2c1.2-1.4,2.2-2.5,3.3-3.9c-1.1-4.2-2.2-8.6-3.5-13.5
	c6.5-0.4,12.5-3.4,18.5,0.3c0.1,0.1,0.2,0.1,0.2,0.2c1.8,2,3.6,4.1,5.4,6.1c0.1,0.1,0.2,0.2,0.3,0.4c0.2,0.2,0.4,0.4,0.5,0.5
	c0.1,0.1,0.3,0.3,0.4,0.4c0.2,0.2,0.4,0.4,0.5,0.5c0.1,0.1,0.3,0.2,0.4,0.4c0.2,0.2,0.4,0.4,0.6,0.5c0.1,0.1,0.2,0.2,0.3,0.3
	c0.4,0.7,0.8,1.4,1.1,2.2c0.5,1.3,1.7,3,1.3,4c-0.6,1.3-2.3,2.1-3.7,2.9c-0.7,0.5-1.6,0.6-2.4,0.9c-1.5,0.4-3,0.7-4.5,1.1
	c-3.3,1-6.6,1.9-9.9,2.9c-0.1,0.1-0.2,0.1-0.3,0.2c-0.5,0.3-1,0.5-1.6,0.8c-0.1,0.1-0.2,0.1-0.3,0.2c-0.5,0.3-1,0.5-1.6,0.8
	C709.1,641.3,709,641.4,708.9,641.4z"/>
<path id="Gallicchio" class="st0" d="M741,498.1c-4.7,9.2,0,18.6,0.9,28.2c-5.3,0-10.2,0-15.4,0c-1.2-4.7-2.2-9.2-3.5-13.5
	c-1-3.2-1-6.1,1.2-8.9c1.6-2.1,2.6-4.8,4.4-6.8C732.4,492.9,736.2,493.2,741,498.1z"/>
<path id="Sant_x27_Angelo_Le_Fratte" class="st0" d="M495.6,390.6c-0.6,0.1-1.2,0.2-1.9,0.4c-1.6-1-3.1-2-4.9-3.2
	c1.3-2.3,2.4-4.3,3.5-6.4c-0.4,0-0.8,0.1-1.1,0.1c-1.6-4-3.6-7.9-4.7-12c-0.4-1.4,1.2-3.4,2.2-5.6c3.5,2.9,6.3,7,10.6,2.5
	c0.1-0.1,0.3-0.1,0.4-0.2c0.5-0.2,0.9-0.4,1.4-0.6c0.2-0.1,0.3-0.2,0.5-0.3c0.5-0.2,0.9-0.4,1.4-0.6c0.2-0.1,0.3-0.2,0.5-0.3
	c2.1-0.3,4.1-0.6,6.2-0.9c0.1,0.1,0.2,0.1,0.3,0.2c1.1,1.1,2.5,2.1,3.3,3.4c1.5,2.6,2.1,5.5,0.4,8.4c-0.5,0.8-0.6,1.7-0.9,2.6
	c-0.1,0.1-0.2,0.2-0.3,0.3c-0.2,0.4-0.3,0.7-0.5,1.1c-0.1,0.2-0.1,0.3-0.2,0.5c-2.3,0.5-4.5,0.9-6.8,1.4c-0.2-0.3-0.3-0.6-0.5-0.9
	c-0.3,0.5-0.7,1-1,1.5c-0.2,0.2-0.3,0.4-0.5,0.6c-1.4,1.7-2.9,3.3-4.3,5c-0.1,0.2-0.3,0.3-0.4,0.5c-0.2,0.2-0.3,0.3-0.5,0.5
	c-0.1,0.1-0.3,0.3-0.4,0.4c-0.2,0.2-0.3,0.3-0.5,0.5c-0.1,0.1-0.3,0.3-0.4,0.4c-0.2,0.2-0.3,0.3-0.5,0.5
	C495.7,390.3,495.6,390.4,495.6,390.6z"/>
<path id="Missanello" class="st0" d="M757.4,519.1c-0.1,1.7-0.2,3.4-0.3,5.4c-4.5,0.8-8.8,1.5-13.6,2.4c-1.3-6.6-2.5-12.7-3.8-19
	c0.8-3.3,1.6-6.7,2.4-10.6c-3.3-2.2-7.8-4.1-5.5-9.7c0,0,0.1-0.2,0.1-0.2c0.6-0.5,1.2-1,2.1-1.8c4.1,1.1,9.7-2.6,12.8,3.7
	c0,0.1,0.1,0.2,0.1,0.2c0.6,1.5,1.2,3,1.7,4.5c0,0.1,0.1,0.2,0.1,0.2c-0.1,0.8-0.2,1.5-0.4,2.5c-2.9,0.7-5.7,1.4-9.2,2.2
	c1.1,1,1.5,1.3,1.9,1.7c0,0,0.1,0.2,0.1,0.2c0.3,0.6,0.5,1.1,0.8,1.7c0.1,0.1,0.1,0.1,0.2,0.2c0.6,0.9,1.2,1.8,1.7,2.6
	c0.1,0.1,0.1,0.1,0.2,0.2c0.6,0.9,1.2,1.8,1.7,2.7c0.1,0.1,0.1,0.1,0.2,0.2c0.6,0.9,1.2,1.8,1.7,2.7c0.1,0.1,0.1,0.1,0.2,0.2
	c0.6,0.9,1.2,1.8,1.7,2.7c0,0.1,0.1,0.1,0.1,0.2c0.3,0.6,0.5,1.1,0.8,1.7c0,0.1,0.1,0.1,0.1,0.2c0.6,0.9,1.2,1.8,1.7,2.7
	L757.4,519.1z"/>
<path id="Cersosimo" class="st0" d="M837,665.5c-5.9,0-10.7-3.9-11.8-9.1c-1.1-4.8-2.4-9.6-3.8-14.8c2.3-0.9,4.4-1.7,7-2.6
	c-1.1-2-2.1-3.7-3.2-5.6c2.9-2.2,5.7-4.3,9.2-6.9c0.2,5.3,1.7,9.4,6.9,11c-3.7,6.2-1.8,12.1-1.6,18C839.8,658.8,838,662.3,837,665.5
	z"/>
<path id="Barile" class="st0" d="M535,153c7.9-2.8,15.3-5.5,22.9-8.1c4.5,1.2,8.9,3,13.8-0.5c-0.7,4.7-1.3,8.4-1.6,10.9
	c-5.5,3.3-10,5.9-14.4,8.6c-3.1,2-5.9,1.9-9.1,0C542.1,161.3,538.2,158.1,535,153z"/>
<path id="San_Chirico_Nuovo" class="st0" d="M692.3,325.1c-2.3-9,7.7-28.6,18.4-35.6c1.2,3.2,2.3,6.2,3.7,9.7
	c4.6-2.2,9-4.2,13.4-6.3c0.2,0.4,0.5,0.7,0.7,1.1c-2.4,2.2-4.6,4.6-7.2,6.5c-4.7,3.5-9.7,6.5-14.2,10.1c-3.1,2.5-6.9,4.7-6.7,9.9
	C700.4,324,696.1,326.2,692.3,325.1z"/>
<path id="Nemoli" class="st0" d="M603.3,607.6c1.1-1.3,2.2-2.5,3.4-3.9c0.7,0.9,1.4,1.9,2.2,3c0.1,0.1,0.1,0.2,0.2,0.3
	c0.5,1.4,1.1,2.9,1.6,4.3c0.1,0.1,0.2,0.3,0.3,0.4c0,1.4,0,2.9,0,4.3c-0.1,0.1-0.2,0.3-0.3,0.4c-0.5,0.8-1.1,1.6-1.6,2.5
	c-0.1,0.1-0.2,0.3-0.3,0.4c-0.2,0.5-0.5,1-0.7,1.5c-0.1,0.1-0.2,0.3-0.3,0.4c-0.9,1.5-1.7,2.9-2.6,4.4c-0.1,0.1-0.2,0.3-0.3,0.4
	c-0.9,1.5-1.7,2.9-2.6,4.4c-0.1,0.1-0.2,0.3-0.3,0.4c-0.9,1.5-1.7,2.9-2.6,4.4c-0.1,0.1-0.2,0.3-0.3,0.4c-0.2,0.5-0.5,1-0.7,1.5
	c-0.1,0.1-0.2,0.3-0.3,0.4c-0.5,0.8-1.1,1.6-1.6,2.5c-0.1,0.1-0.2,0.3-0.3,0.4c-0.2,0.5-0.5,1-0.7,1.5c-0.1,0.1-0.2,0.3-0.3,0.4
	c-1.2,0.3-2.3,0.6-3.5,0.9c-0.1-0.1-0.3-0.2-0.4-0.3c-0.5-2-1.6-4.1-1.5-6.1c0.2-3.6,1-7.1,1.6-10.7c0.1-0.1,0.2-0.3,0.3-0.4
	c0.5-0.8,1.1-1.6,1.6-2.5c0.1-0.1,0.2-0.3,0.3-0.4c0.2-0.5,0.5-1,0.7-1.5c0.1-0.1,0.2-0.3,0.3-0.4c0.5-0.8,1.1-1.6,1.6-2.5
	c0.1-0.1,0.2-0.3,0.3-0.4c0.5-0.8,1.1-1.6,1.6-2.5c0.1-0.1,0.2-0.3,0.3-0.4c0.5-0.8,1.1-1.6,1.6-2.5c0.1-0.1,0.2-0.3,0.3-0.4
	c0.2-0.5,0.5-1,0.7-1.5c0.1-0.1,0.2-0.3,0.3-0.4c0.5-0.8,1.1-1.6,1.6-2.5C603.2,607.8,603.3,607.7,603.3,607.6z"/>
<path id="Teana" class="st0" d="M759.6,591.7c1.2,0.4,2.3,0.9,3.5,1.3c0.1,0.3,0.2,0.6,0.3,1c-11.8,5.9-23.6,11.8-35.8,17.9
	c-0.8-2.7-1.5-5.3-2.2-8c-0.1-0.2,0-0.5,0-0.7c0.3-2.6,9-10.3,11.6-10.3c5.2,0,10.5,0.1,15.7,0c2.3,0,4.5-0.4,6.7-0.7
	C759.4,592,759.5,591.9,759.6,591.7z"/>
<path id="Cirigliano" class="st0" d="M734.8,437.4c-0.7-0.7-1.4-1.3-2.4-2.3c1.8-3.1,3.6-6.4,5.8-10.4c2.4,2.6,4.4,4.9,6.6,7.1
	c3.1,3.1,5.9,5.9,5.5,11.1c-0.3,4.9,0.8,9.9,1.4,15.4c-3.8-2-8-2.6-9.6-7c0-0.1-0.1-0.2-0.2-0.3c-0.5-3.2-1.1-6.5-1.6-9.7
	c-0.1-0.1-0.1-0.2-0.2-0.3c-0.5-0.5-1.1-1.1-1.6-1.6c-0.1-0.1-0.2-0.1-0.2-0.2c-0.5-0.2-1-0.5-1.5-0.7c-0.1-0.1-0.2-0.1-0.3-0.2
	c-0.5-0.2-1-0.5-1.5-0.7C734.9,437.5,734.8,437.5,734.8,437.4z"/>
<path id="Calvera" class="st0" d="M756.9,591.5c-9.6-0.6-19.5,1.4-29.3-1.6c-1.1,0.2-2.3,0.4-4,0.7c-0.5-2.5-1-4.7-1.4-7.1
	c2.5-0.5,4.3-1.1,6.2-1.1c7.8-0.2,15.7-0.6,23.5-0.1C756.1,582.5,758.4,587.3,756.9,591.5z"/>
<path id="Ginestra" class="st0" d="M555.9,164.7c5.3-2.9,9.7-5.4,13.5-7.5c5.4,2.8,8,6.5,8.8,11.3c0.8,4.6,3.2,8.2,6.4,11.4
	c2.3,2.3,2.8,4.6,1.4,7.5c-0.9,1.8-1.6,3.7-2.8,6.5c-1.1-2.6-2-4.4-2.6-6.2c-2-5.3-3.9-10.7-6-16c-0.4-1-1.6-1.9-2.7-2.2
	c-3.9-1.1-8-2-11.9-3C558.9,166.1,557.9,165.6,555.9,164.7z"/>
<path id="Campomaggiore" class="st0" d="M704.5,370c2.3-6.2,4.5-12.2,6.6-17.7c4.7,1.7,9.2,3.3,14.5,5.1c-1.8,3.1-3.3,6.6-5.6,9.4
	c-1.8,2.1-4.7,3.4-7.2,5C709.2,373.9,707.2,373.4,704.5,370z"/>
<g id="San_Martino_d_x27_Agri">
	<path class="st0" d="M707.9,528.5c-1.5-0.6-3-1.2-4.5-1.7c-0.1-0.1-0.2-0.1-0.3-0.2c-0.5-0.3-1.1-0.5-1.6-0.8c0,0-0.2-0.1-0.2-0.1
		c-1-0.3-2.1-0.5-2.9-1c-5.1-3.6-11.3-0.1-16.5-3c-0.8,2-1.4,3.3-2.1,5c-3.1,1-5.7,2.9-5.9,6.7c-0.2,2.7-0.1,5.4-0.2,8.1
		c-0.1,1.6-0.4,3.1-0.6,4.1c10.8,6.4,21.8,3.1,32.6,2.7c1.6-6.1,3.1-12,4.5-17.4c-1-1.1-1.6-1.6-2.1-2.2
		C708.1,528.6,708,528.5,707.9,528.5z"/>
	<path class="st0" d="M723.3,527.6c0,0-0.1,0.1-0.1,0.1c-3,1.3-6.1,2.6-9.1,3.8c2.9,8.7,7.1,12.1,14.6,12c2-5,4-10.1,6.2-15.9
		C730.6,527.6,727,527.6,723.3,527.6z"/>
</g>
<g id="Noepoli">
	<path class="st0" d="M823.7,605.4c-0.1-1-0.2-1.8-0.3-2.9c-1.1,0.5-1.9,0.8-2.7,1.3c-3.8,2.5-7.5,5.1-11.3,7.5
		c-1.1,0.7-2.7,1.1-4,1c-2.7-0.1-5.5-0.5-8.2-0.8c-2.4-0.3-3.7,0.8-4.3,3.1c-0.4,1.7-1.2,3.2-1.9,5.2c-2.8-2.5-5.2-4.5-8-6.9
		c0.5,6.9,1,13,1.5,19.4c2.5,0,4.9,0.7,6.4-0.2c2.2-1.3,3.7-3.6,6-5.9c5.2,3.8,10.6,7.7,15.7,11.4c5.5-2.8,10.8-5.4,14.7-7.4
		c1.4-4.3,2.4-7.4,3.5-10.9c-2.1,0.2-4,0.4-7,0.6c2.9-4,5.1-7.1,7.5-10.6C828.4,608,826,606.7,823.7,605.4z"/>
	<path class="st0" d="M835,574.7c-1.6,2.1-3.3,4.2-4.9,6.3c2.2,4.7,6.2,6.3,9.9,4.2C841.9,579.3,841.1,577.6,835,574.7z"/>
</g>
<path id="Bella" class="st0" d="M552.4,252.3c-0.6-1-1-1.7-1.4-2.4c-0.1-0.1-0.2-0.2-0.3-0.3c-0.2-0.2-0.3-0.4-0.5-0.6
	c-0.1-0.1-0.2-0.2-0.3-0.3c-1.9-0.2-2.5-1.6-2.3-3.6c-0.1-0.1-0.1-0.3-0.2-0.4c-0.2-0.8-0.4-1.7-0.6-2.5c-0.1-0.1-0.1-0.2-0.2-0.3
	c-1-2-1.9-4.1-3-6.4c-1.4,0.9-2.5,1.6-4.2,2.6c1.3,3,2.4,5.7,3.6,8.4c-6.9-2.2-9.4,4.8-14.3,7.1c-8.8-2.5-18-3.6-25.9-9.2
	c-3.6-2.5-7.4-5.8-12.6-4c-1.9,0.6-3.9,1-5.6,1.9c-1.1,0.6-2.2,2.1-2.3,3.2c-0.3,4.3,0.1,8.7-0.2,13.1c-0.2,2.3-1.2,4.6-1.8,6.9
	c0,0.1-0.1,0.2-0.1,0.3c1.2,2.7,2.5,5.4,3.7,8.1c0.1,0.2,0.2,0.4,0.4,0.6c0.2,0.5,0.4,0.9,0.6,1.4c0.1,0.2,0.3,0.4,0.4,0.6
	c3.4,4.4,7.3,8.7,1.5,14.6c2,0.3,3.3,0.4,4.6,0.6c0.2-0.1,0.3-0.2,0.5-0.3c1.5-3.5,3-7,4.5-10.5c0.5-1.2,1-3.3,1.4-3.3
	c1.5,0.1,3,0.9,4.5,1.4c0.9,0.3,1.9,0.7,2.8,1c2.6,0.9,5.1,1.9,7.7,2.8c0.9,0.3,1.9,0.7,2.8,1c2.6,0.9,5.1,1.9,7.7,2.8
	c0.9,0.3,1.9,0.7,2.8,1c1.5-0.2,3-0.5,4.6-0.7c0.1-0.1,0.3-0.3,0.4-0.4c0.2-0.2,0.3-0.3,0.5-0.5c0.1-0.1,0.3-0.3,0.4-0.4
	c0.9-1.1,1.7-2.3,2.6-3.4c0.1-0.1,0.2-0.3,0.4-0.4c0.2-0.2,0.3-0.3,0.5-0.5c0.2-0.2,0.3-0.3,0.5-0.5c0.2-0.2,0.3-0.3,0.5-0.5
	c0.1-0.1,0.3-0.3,0.4-0.4c1-3.2,1.9-6.4,3-9.4c0.3-0.7,1.5-1.1,2.3-1.6c0.1-0.1,0.3-0.3,0.4-0.4c0.2-0.2,0.3-0.3,0.5-0.5
	c0.1-0.1,0.3-0.2,0.4-0.4c0.8-0.5,1.6-1.1,2.5-1.6c0.1-0.1,0.3-0.2,0.4-0.4c0.2-0.2,0.3-0.3,0.5-0.5c0.1-0.1,0.3-0.3,0.4-0.4
	c1.1-0.8,2.3-1.7,3.4-2.5c0.1-0.1,0.3-0.2,0.4-0.3c0.8-0.5,1.6-1.1,2.5-1.6c0.1-0.1,0.3-0.2,0.4-0.4c0.2-0.2,0.3-0.3,0.5-0.5
	c0.1-0.1,0.1-0.1,0.2-0.2c0.8-1.4,1.7-2.9,2.4-4C555.3,254,553.8,253.1,552.4,252.3z"/>
<path id="Venosa" class="st0" d="M663.3,142.5c-7.7-2.5-15.4-5-23-7.5c-3.1-1-6.2-2.1-9.8-3.4c4.3-5.1,8.1-9.7,11.6-13.9
	c-1.1-8.2,0.3-16.6-6.8-22.6c-2.2,3.9-4.3,7.8-6.9,12.4c-0.5-1.1-4.6-7.5-3.9-12.3c0.9-6.2,8.3-13,7-13c-1,0-12,10-11,9
	c0,0,3.5,4.1,3,3c-1.9,4.7-4.1,9.7-5.8,13.4c-0.5,1-1.8,2.4-2.7,2.4c-3.3-0.2-5,1.5-6.1,4.2c-1.1,2.7-3,3.8-6.1,3.7
	c-7.4-0.3-14.8-0.3-22.1-0.1c-4.4,0.1-7.9,1.6-7.8,7.4c0.3,10.2-0.4,20.5-0.7,31.8c5.5,2.7,7,9.4,8.9,16c1.3-0.5,2.2-0.8,2.9-1.3
	c8.9-6.6,18.8-9,29.8-7.8c2.5,0.3,5.1,0.2,7.6,0c1.7-0.2,3.6-0.7,5-1.7c4.2-3,7.9-7,12.4-9.1c4-1.9,9-2,13.6-2.4
	c2.5-0.2,5.1,0.8,7.8,1.2c0.4-1.8,0.7-3.1,1-4.6c1.9,0.3,3.6,0.5,5.9,0.8C666.1,145.5,665.9,143.3,663.3,142.5z"/>
<path id="Grassano" class="st0" d="M807.6,320c-0.3-0.6-0.7-1.2-1.1-1.8c0.1-0.1,0.2-0.3,0.2-0.5c0.2-0.1,0.4-0.2,0.6-0.3
	c0.4-2.6,0.9-5.3,1.4-8.5c-1.3-0.8-2.9-1.7-4.5-2.7c-0.2,0.2-4.7-2-4.9-1.8c-0.6-0.1-6.1-0.9-9.2-1.6c1.1,2.4,1.8,4,2.7,6.1
	c1.8-1.5,4.4-2.8,6.5-4.5c0.3,1.1,0.1,2.8,1,5c0.5,1.9,2,4,2.8,6.4c-1.2,0.2-2.1,0.4-3,0.4c-3.5,0.1-7.1-0.6-10.4,0.2
	c-4,1-7.7,3.1-11.4,4.9c-0.5,0.3-0.8,1.7-0.7,2.6c0.5,4.9,1.3,9.8,1.8,14.8c0.5,4.7,2.4,7.3,7.4,8.7c5.7,1.6,11.2,1.6,16.9,1.1
	c0.4,0,0.8-0.4,0.4-0.2c1.5-9.9,2.9-19.1,4.4-28.4C808.3,319.8,807.9,319.9,807.6,320z"/>
<path id="San_Severino_Lucano" class="st0" d="M716.7,643.8c-0.3-1.3-0.5-2.5-0.8-3.8c1.7-0.6,3.4-1.2,5.1-1.8
	c0.8-0.3,1.5-0.6,2.3-0.9c1.6-0.3,3.1-0.6,4.7-1c2.5-0.7,5-1.4,7.5-2.1c0.1,0.1,0.2,0.2,0.3,0.2c1.1,0.2,2.1,0.4,3.2,0.6
	c0.2,0.1,0.4,0.2,0.6,0.3c0.9,0.5,1.8,0.9,2.7,1.5c-0.3,1-0.6,1.9-0.9,2.9c-0.1,0.2-0.2,0.3-0.3,0.5c-0.2,0.5-0.4,1-0.7,1.4
	c-0.1,0.2-0.2,0.3-0.3,0.5c-0.8,1.7-1.7,3.4-2.7,5.4c2.8,1,5.1,1.8,7.8,2.8c0.5-1.3,1-2.4,1.5-3.5c0.1-0.1,0.1-0.2,0.2-0.3
	c0.7-0.8,1.4-1.6,1.7-2c1.2-0.7,1.9-1.1,2.7-1.6c0.2-0.1,0.3-0.2,0.5-0.3c0.8-0.5,1.7-1.1,2.5-1.6c0.1-0.1,0.1-0.1,0.2-0.2
	c0.7-1.8,1.3-3.6,2-5.4c0.5,0.6,1.1,1.2,1.6,1.7c0.3,1.3,0.6,2.5,1,3.8c0.3,1.3,0.6,2.5,0.9,3.8c0.3,1.3,0.6,2.5,0.9,3.8
	c0.9,4.4,1.9,8.9,2.8,13.3c1.3,5.7,2.6,11.4,3.9,17.1c0.3,0,0.5-0.1,0.8-0.1c-0.3,1-0.6,1.9-1,2.9c-1.6,2.5-3.1,5.1-4.7,7.6
	c-0.3,0.6-0.6,1.3-1,1.9c-0.7,0.7-1.4,1.4-1.5,1.4c-2.8-0.7-4.9-1.2-6.6-1.6c-1.5,2.9-2.6,5-3.7,7.1c-0.4-0.1-0.8-0.2-1.2-0.3
	c0-2.2,0-4.4,0-6.6c0-3.2,0-6.4,0-9.6c-0.6-1-1.2-1.9-1.9-2.9c-0.6-1-1.3-1.9-1.9-2.9c-0.9-1.3-1.9-2.5-2.8-3.8
	c-0.6-1-1.3-1.9-1.9-2.9c-0.6-1-1.3-1.9-1.9-2.9c-2.2-3.5-4.4-7-6.6-10.5c-0.3-0.6-0.6-1.3-1-1.9c-0.6-1-1.2-1.9-1.8-2.9
	c0-3,0-6,0-9.4c-0.7,0.6-1.4,1.2-2.1,1.8c-1.2,1-2.5,1.9-3.7,2.9c-0.3,0.3-0.7,0.6-1,0.9c-0.9,0.5-1.9,1-3.5,1.7
	c-0.3-0.4-0.7-1.1-1.1-1.7C717.4,646.3,717.1,645.1,716.7,643.8z"/>
<g id="Fardella">
	<path class="st0" d="M756.9,618.5c0.2-0.2,0.4-0.4,0.5-0.5c0.1-0.1,0.2-0.2,0.3-0.3c0.3-0.6,0.6-1.2,0.8-1.7c0-0.1-0.1-0.2-0.1-0.2
		c-0.2-1.1-0.5-2.2-0.7-3.4c-0.1-0.1-0.1-0.2-0.2-0.4c-0.2-1.1-0.5-2.3-0.7-3.4c-0.1-0.1-0.1-0.2-0.2-0.4c-0.2-1.1-0.5-2.3-0.7-3.4
		c-0.1-0.1-0.1-0.2-0.2-0.3c0-0.5,0-1,0-1.6c0.1-0.1,0.1-0.1,0.2-0.2c0-0.9,0-1.8,0-3c-1.3,0.3-2.4,0.3-3.3,0.7
		c-4.3,2-8.5,4-12.7,6.1c-5.4,2.7-10.8,5.6-16.6,8.5c0-0.3,0,0.2,0.1,0.7c0.1,0.1,0.2,0.1,0.2,0.2c1.8,2.1,3.6,4.1,5.5,6.2
		c0.1,0.1,0.2,0.2,0.3,0.4c0.2,0.2,0.4,0.4,0.6,0.5c0.1,0.1,0.3,0.3,0.4,0.4c0.2,0.2,0.4,0.4,0.6,0.5c0.1,0.1,0.3,0.3,0.4,0.4
		c0.2,0.2,0.4,0.4,0.6,0.6c0.1,0.1,0.2,0.2,0.3,0.3c1.5,1.5,3.1,3,4.6,4.4c0.3-0.3,0.6-0.6,0.9-0.9c1-1.2,1.9-2.5,2.9-3.7
		c0.9-3.5,4.1-3.7,6.9-4.4c3-0.8,6.1-1.3,9.2-1.9C756.6,618.7,756.8,618.6,756.9,618.5z"/>
	<path class="st0" d="M748.2,700.9c0.3,0.8,0.7,1.6,1,2.4c1.2-0.5,2.4-1,3.6-1.6c0.3-0.3,0.6-0.6,0.9-0.9c0.3-0.3,0.6-0.6,0.9-1
		c1.1-2.8,2.2-5.6,3.5-9.1c-2.1,0.1-3.1,0.2-3.2,0.2C752.5,694.6,750.3,697.8,748.2,700.9z"/>
</g>
<path id="Baragiano" class="st0" d="M528.3,292c0.6,0.9,1.2,1.8,1.9,2.8c0.6,0.9,1.2,1.8,1.9,2.8c0.2,0.7,0.4,1.4,0.4,1.5
	c-2.2,1.4-4.1,2.6-6,3.8c-1.2,0.9-2.5,1.8-3.7,2.8c-1.2,0.9-2.5,1.8-3.7,2.8c-0.9,0.3-1.8,0.6-2.6,0.9c-0.3-0.3-0.6-0.5-1-0.8
	c-0.3-0.3-0.6-0.6-0.9-0.9c-2.5-2.2-5-4.3-7.5-6.5c-0.6-0.6-1.3-1.2-1.9-1.8c-2.8-1.9-5.6-3.7-8.4-5.6c-0.9-0.8-1.8-1.7-2.7-2.6
	c0.9-3.1,1.8-6.2,2.7-9.3c0.5-0.8,1-1.6,1.6-2.6c1.3,0.2,2.6,0.5,3.9,0.8c0.9,0.3,1.9,0.6,2.8,0.9c2.5,0.9,5,1.8,7.5,2.8
	c0.9,0.3,1.9,0.6,2.8,0.9c2.5,0.9,5,1.8,7.5,2.8c0.9,0.3,1.9,0.6,2.8,0.9C526.4,289.6,527.3,290.8,528.3,292z"/>
<g id="Chiaromonte">
	<path class="st0" d="M789,599.2c-3.7-2.3-7.3-4.7-10.7-6.9c0-7.4,0-14.4,0-21.2c-8.5-2.2-7.6-3.3-10.4,6c0.8,5.1,1.6,9.8,2.3,14.4
		c-2.8,1.6-5.3,3.6-8.1,4.6c-3.5,1.2-3.7,4.6-5.6,6.8c-0.1,0.1-0.1,0.1-0.2,0.2c0,0.5,0,1.1,0,1.6c0.1,0.1,0.1,0.2,0.2,0.3
		c0.2,1.1,0.5,2.3,0.7,3.4c0.1,0.1,0.1,0.2,0.2,0.4c0.2,1.1,0.5,2.3,0.7,3.4c0.1,0.1,0.1,0.2,0.2,0.4c0.2,1.1,0.5,2.3,0.7,3.4
		c0,0.1,0.1,0.2,0.1,0.2c2.8,0.3,5.6,0.6,8.3,0.9c0.9,0.1,1.8,0.5,2.6,0.8c0.1,0.1,0.2,0.2,0.4,0.3c0.2,0.2,0.4,0.4,0.6,0.6
		c0.1,0.1,0.2,0.2,0.3,0.4c0.2,0.2,0.4,0.4,0.6,0.6c0.1,0.1,0.2,0.2,0.3,0.4c0.2,0.2,0.4,0.4,0.6,0.6c0.1,0.1,0.2,0.2,0.3,0.4
		c0.2,0.2,0.4,0.4,0.6,0.6c0.1,0.1,0.2,0.2,0.3,0.3c1,0.6,2,1.3,3,1.9c1.1,0.7,2.2,1.3,3.3,1.9c0.1-0.1,0.2-0.1,0.3-0.1
		c0.5-0.7,1.1-1.3,1.9-2.3c-0.3-3.9-0.6-8.1-0.9-12.2c3.8-2,7.4-3.9,10.9-5.7C793.4,602.1,791.3,600.6,789,599.2z"/>
	<path class="st0" d="M715.4,643.9c-0.3-1.3-0.6-2.5-0.9-3.8c-0.8-0.1-1.6-0.1-2.4-0.2c-0.1,0.1-0.2,0.1-0.2,0.2
		c-0.5,0.3-1,0.5-1.5,0.8c-0.1,0.1-0.2,0.1-0.2,0.2c-0.5,0.3-1,0.5-1.5,0.8c-0.1,0.1-0.2,0.1-0.2,0.2c-2.5,2.1-4.9,4.1-7.5,6.3
		c1,1,1.6,1.5,2.2,2.1c0.1,0.1,0.2,0.1,0.3,0.2c2.6-0.2,5.4-0.8,7.5,1.7c0.1,0.1,0.2,0.2,0.3,0.3c0.8,0.6,1.6,1.2,2.4,1.8
		c0.1-0.1,0.2-0.2,0.3-0.2c0.2-0.2,0.4-0.4,0.5-0.6c0.1-0.1,0.2-0.3,0.4-0.4c0.2-0.2,0.4-0.4,0.5-0.6c0.1-0.1,0.2-0.3,0.3-0.4
		c0.2-0.2,0.4-0.4,0.5-0.6c0.1-0.1,0.2-0.2,0.3-0.3c0-1.2-0.1-2.4-0.1-3.6C716,646.5,715.7,645.2,715.4,643.9z"/>
	<path class="st0" d="M759.1,701.3c-0.4-2-0.8-4-1.2-6c-1.3,2.2-2.5,4.3-3.7,6.4c-0.3,0.3-0.6,0.6-0.8,1c-0.3,0.3-0.6,0.6-0.8,1
		c-0.8,2.5-1.6,5-2.4,7.5c-0.1,0.1-0.2,0.2-0.2,0.3c0.1,1.1,0.3,2.2,0.4,3.2c1.5,0.7,2.8,1.4,4,2c0.9-0.8,1.6-1.5,2.3-2.2
		c0.1-0.1,0.1-0.2,0.2-0.3c0.2-0.5,0.4-1,0.6-1.5c0.1-0.1,0.2-0.3,0.3-0.4c0.5-0.8,0.9-1.7,1.4-2.5c0.1-0.2,0.2-0.3,0.3-0.5
		c0-2.4,0-4.8,0-7.2C759.3,701.7,759.2,701.5,759.1,701.3z"/>
	<path class="st0" d="M744,644c2.2-0.5,4.4-1,6.6-1.4c0.1-0.1,0.3-0.2,0.4-0.3c0.7-0.5,1.5-1,2.2-1.6c0.1-0.1,0.1-0.1,0.2-0.2
		c-0.2-1.1-0.3-2.1-0.5-3.2c0,0,0,0,0,0c-0.4,0.5-0.8,0.9-1.2,1.4c-0.1,0.1-0.1,0.1-0.2,0.2c-0.2,0.2-0.4,0.5-0.6,0.7
		c-0.1,0.1-0.1,0.1-0.2,0.2c-1.5,0.6-3,1.2-4.5,1.8c-0.2-0.4-0.3-0.8-0.5-1.2c1.1-0.5,2.2-1.1,3.3-1.6c0,0,0.1-0.1,0.1-0.1
		c1.1-1.5,2.2-3,3.2-4.5c-0.3-0.3-0.5-0.6-0.8-1c-0.6-0.9-1.2-1.8-1.7-2.8c-0.3-0.3-0.5-0.7-0.8-1c-0.1-0.8-0.7-1.8-0.4-2.3
		c1.1-1.9,2.4-3.5,3.6-5.3c-0.3-0.2-0.7-0.7-1-0.6c-3.6,1.3-7.8,0.7-10.5,4.5c-0.9,1.2-1.7,2.5-2.6,3.7c-0.3,0.3-0.5,0.6-0.8,1
		c-0.3,1.2-0.6,2.4-1,3.6c0.1,0.1,0.2,0.2,0.3,0.2c1,0.2,1.9,0.4,2.9,0.6c0.2,0.1,0.3,0.2,0.5,0.3c1.3,0.2,2.6,0.3,3.9,0.5
		c0.3,0.6,0.6,1.2,0.9,1.9c-1.1,0.7-2.1,1.3-3.1,2c-0.1,0.1-0.2,0.3-0.3,0.4c-0.2,0.5-0.4,0.9-0.6,1.4c-0.1,0.2-0.2,0.3-0.3,0.5
		c-0.2,1.5-0.4,3.1-0.7,4.9c1.6,0.6,3.1,1.2,4.4,1.7c0.9-0.8,1.5-1.3,2.2-1.9c0.1-0.1,0.1-0.2,0.2-0.3c-0.8-0.4-1.6-0.8-2.4-1.2
		C744.1,644.6,744,644.3,744,644z"/>
</g>
</svg>